<svg width="20" height="20" viewBox="0 0 20 20" fill="none" xmlns="http://www.w3.org/2000/svg">
<g clip-path="url(#clip0_14355_6885)">
<path fill-rule="evenodd" clip-rule="evenodd" d="M14.8113 0.693359C14.7187 0.772266 13.125 4.5741 13.125 4.71602C13.125 4.93973 13.4523 5.08082 13.6253 4.93164C13.6702 4.89289 14.0294 4.08102 14.4548 3.05664L15.2051 1.25L15.6201 1.24875C16.0548 1.24746 16.1194 1.2268 16.2079 1.06082C16.2685 0.946953 16.2362 0.807852 16.1249 0.704219C16.0475 0.63207 15.9886 0.625 15.4657 0.625C14.9754 0.625 14.8797 0.635 14.8113 0.693359ZM16.9709 0.720898C16.9104 0.781328 16.875 0.861406 16.875 0.9375C16.875 1.01359 16.9104 1.09367 16.9709 1.1541L17.0667 1.25H18.125H19.1832L19.2791 1.1541C19.3395 1.09367 19.375 1.01359 19.375 0.9375C19.375 0.861406 19.3395 0.781328 19.2791 0.720898L19.1832 0.625H18.125H17.0667L16.9709 0.720898ZM10.4242 1.32465L10.332 1.39934L10.3214 3.86926C10.3095 6.62223 10.2953 6.47199 10.5792 6.58918C10.8397 6.69668 11.34 6.95758 11.5211 7.08035C12.3111 7.61602 12.967 8.40332 13.3352 9.25781C13.3954 9.39746 13.4879 9.55125 13.5409 9.59961L13.6372 9.6875H16.0977H18.5582L18.6599 9.58578L18.7616 9.48406L18.7372 8.97055C18.6347 6.81688 17.6723 4.77648 16.0937 3.36633C15.5317 2.8643 15.4204 2.81398 15.2201 2.9716C15.1407 3.03406 15.1172 3.08695 15.1172 3.20332C15.1172 3.3448 15.1384 3.37207 15.4621 3.64668C17.0141 4.96352 17.8993 6.69539 18.1052 8.81836L18.1288 9.0625L16.0273 9.06145L13.9257 9.06039L13.8093 8.79988C13.3566 7.7873 12.2127 6.64332 11.2001 6.19066L10.9396 6.07422L10.9385 3.97148L10.9375 1.86879L11.2011 1.89461C11.7396 1.94734 12.2589 2.04293 12.7082 2.17195C12.9623 2.24496 13.2048 2.30469 13.247 2.30469C13.3618 2.30469 13.5156 2.13102 13.5156 2.00133C13.5156 1.8275 13.3902 1.7323 12.994 1.60539C12.3491 1.39879 11.4406 1.25223 10.7953 1.25066C10.5782 1.25016 10.496 1.26656 10.4242 1.32465ZM16.9709 1.9709C16.9104 2.03133 16.875 2.11141 16.875 2.1875C16.875 2.26359 16.9104 2.34367 16.9709 2.4041L17.0667 2.5H18.125H19.1832L19.2791 2.4041C19.3395 2.34367 19.375 2.26359 19.375 2.1875C19.375 2.11141 19.3395 2.03133 19.2791 1.9709L19.1832 1.875H18.125H17.0667L16.9709 1.9709ZM7.92965 3.16879C6.38571 3.32402 4.77172 3.99793 3.59684 4.97785C3.2052 5.30449 2.53574 6.00148 2.25789 6.37176C1.05438 7.97578 0.47258 10.0299 0.664377 11.9978C0.810861 13.5004 1.36613 14.9397 2.25789 16.1282C2.53555 16.4983 3.20594 17.1963 3.59348 17.5188C5.21164 18.8655 7.43785 19.5455 9.53684 19.3343C10.4875 19.2386 11.494 18.9505 12.3437 18.5308C12.9679 18.2225 13.0859 18.128 13.0859 17.9368C13.0859 17.803 13.0266 17.7354 12.0792 16.7879C11.3366 16.0453 11.0485 15.7813 10.9811 15.7813C10.9308 15.7813 10.7215 15.8443 10.5159 15.9212C9.86844 16.1638 9.52203 16.2243 8.7695 16.2264C8.03469 16.2286 7.70266 16.1768 7.10934 15.9675C6.37461 15.7084 5.80141 15.3432 5.23063 14.7707C4.49442 14.0321 4.06196 13.2388 3.84375 12.2266C3.74367 11.7623 3.74367 10.7377 3.84375 10.2734C4.06196 9.26117 4.49442 8.46793 5.23063 7.72934C6.13039 6.82672 7.20692 6.33973 8.47371 6.26219C8.82985 6.24043 8.89532 6.22539 8.97301 6.1477L9.06246 6.05824V4.6875V3.31676L8.96657 3.2209C8.88004 3.13434 8.84106 3.12551 8.56617 3.1302C8.39871 3.13305 8.11227 3.15039 7.92965 3.16879ZM7.92965 3.79309C5.72926 4.04047 3.73516 5.23563 2.53285 7.02774C1.6927 8.28 1.24797 9.74047 1.25063 11.2387C1.25578 14.1552 2.9125 16.7627 5.56637 18.0314C7.54043 18.9752 9.96098 18.9827 11.895 18.051L12.2686 17.8711L11.5679 17.1723L10.8673 16.4736L10.4825 16.595C9.81711 16.805 9.50125 16.8525 8.7695 16.8527C7.78532 16.8531 7.17453 16.7127 6.30856 16.2871C4.60352 15.4491 3.39543 13.7594 3.16805 11.8945C2.84766 9.26688 4.47715 6.72746 7.01168 5.90445C7.31 5.80758 7.70633 5.7268 8.31051 5.63977L8.43746 5.62145V4.68574V3.75L8.33004 3.75508C8.27098 3.75785 8.09078 3.77496 7.92965 3.79309ZM8.37887 8.77176C8.3359 8.78168 8.20406 8.80934 8.0859 8.83317C7.1943 9.01297 6.04309 9.82527 5.23031 10.8481C4.93117 11.2245 4.93117 11.2774 5.23055 11.6481C6.40258 13.0994 7.86321 13.8821 9.09371 13.7183C9.965 13.6023 10.7643 13.1668 11.6155 12.3445C12.1663 11.8124 12.5 11.3996 12.5 11.2502C12.5 11.043 11.7772 10.2244 11.1664 9.73988C10.6023 9.29235 10.0489 8.99637 9.49531 8.84606C9.27848 8.78715 8.52797 8.73723 8.37887 8.77176ZM8.18356 9.45172C8.03317 9.49156 7.82567 9.56067 7.72242 9.60535C7.18867 9.83629 6.48239 10.3741 5.98215 10.9304L5.69481 11.25L5.98215 11.5696C6.98801 12.6882 8.16149 13.2559 9.12223 13.0886C9.89703 12.9537 10.7679 12.4012 11.5178 11.5689L11.8051 11.25L11.5178 10.9307C10.4247 9.71621 9.21352 9.17895 8.18356 9.45172ZM8.45457 10.0342C8.26356 10.0838 7.93156 10.2794 7.8266 10.4042C7.77348 10.4673 7.68336 10.6087 7.62633 10.7185C7.53824 10.888 7.52254 10.9679 7.5218 11.25C7.52102 11.5541 7.53215 11.6028 7.65367 11.8282C7.80149 12.1023 7.92407 12.2207 8.21844 12.3736C8.38856 12.462 8.4668 12.4773 8.74996 12.4773C9.03313 12.4773 9.11137 12.462 9.28149 12.3736C9.57586 12.2207 9.69844 12.1023 9.84625 11.8282C9.96778 11.6028 9.97891 11.5541 9.97813 11.25C9.97739 10.9679 9.96168 10.888 9.8736 10.7185C9.72137 10.4255 9.60207 10.3013 9.33793 10.1605C9.08555 10.026 8.69895 9.97066 8.45457 10.0342ZM8.4941 10.68C8.1 10.8516 8.00692 11.3755 8.31567 11.6843C8.75453 12.1232 9.47371 11.7301 9.35824 11.1144C9.28914 10.7462 8.84949 10.5252 8.4941 10.68ZM13.8523 11.027C13.7745 11.1047 13.7595 11.1701 13.7376 11.5287C13.6668 12.6854 13.227 13.7416 12.467 14.58C12.1972 14.8777 12.1552 14.9816 12.24 15.1423C12.2723 15.2037 12.7097 15.6626 13.2118 16.1621C14.0866 17.0322 14.1312 17.0703 14.2755 17.0703C14.4068 17.0703 14.4511 17.0439 14.6191 16.8652C15.8938 15.5098 16.6564 13.835 16.8356 11.9978C16.9012 11.3244 16.8907 11.145 16.7791 11.0334L16.6832 10.9375H15.3125H13.9417L13.8523 11.027ZM14.3564 11.748C14.3015 12.1853 14.2101 12.6409 14.1172 12.9404C13.9765 13.3938 13.5972 14.1436 13.3223 14.5117C13.194 14.6836 13.059 14.8652 13.0223 14.9152C12.9559 15.0059 12.9577 15.0082 13.619 15.6696L14.2824 16.3329L14.5251 16.0395C15.2834 15.1227 15.8125 14.0418 16.0689 12.8861C16.1527 12.5082 16.25 11.8295 16.25 11.6226C16.25 11.5702 16.1307 11.5625 15.3148 11.5625H14.3798L14.3564 11.748Z" fill="white"/>
</g>
<defs>
<clipPath id="clip0_14355_6885">
<rect width="20" height="20" fill="white"/>
</clipPath>
</defs>
</svg>
