<svg width="20" height="20" viewBox="0 0 20 20" fill="none" xmlns="http://www.w3.org/2000/svg">
<g clip-path="url(#clip0_14355_6880)">
<path fill-rule="evenodd" clip-rule="evenodd" d="M0.895249 0.586148C0.641889 0.629429 0.421186 0.752672 0.260171 0.940797C-0.0194388 1.26744 -6.38162e-05 0.742945 -6.38162e-05 7.98837C-6.38162e-05 15.2417 -0.0199857 14.7086 0.263569 15.0399C0.341772 15.1313 0.494624 15.2474 0.603217 15.298L0.800717 15.3899L3.99466 15.3903L7.18865 15.3907L7.17826 16.5087L7.1679 17.6266L6.60943 17.891C6.30228 18.0364 6.01662 18.1864 5.97466 18.2244C5.90662 18.286 5.89837 18.347 5.89837 18.7892C5.89837 19.2435 5.90525 19.2911 5.9806 19.3593C6.06033 19.4314 6.18322 19.4337 10.0075 19.4337H13.9522L14.0268 19.3415C14.0913 19.2619 14.1015 19.1837 14.1015 18.7713C14.1015 18.3619 14.0915 18.2844 14.0317 18.2302C13.9932 18.1954 13.7032 18.0421 13.3871 17.8894L12.8124 17.6119V16.5013V15.3907H16.0079H19.2033L19.4062 15.2896C19.6388 15.1737 19.86 14.9356 19.9254 14.7308C19.9501 14.6533 19.9858 14.5732 20.0047 14.5528C20.0491 14.5048 20.0501 1.3558 20.0057 1.38322C19.9874 1.39455 19.9524 1.33658 19.9277 1.25447C19.8631 1.03873 19.6089 0.769273 19.3667 0.65982L19.1601 0.5665L10.1171 0.561031C5.14349 0.558023 0.993647 0.569351 0.895249 0.586148ZM0.82103 1.12322C0.746264 1.16076 0.645171 1.25123 0.596421 1.32423L0.507749 1.45697V6.959V12.461H9.99994H19.4921V6.959V1.45697L19.4035 1.32423C19.3547 1.25123 19.2536 1.16076 19.1788 1.12322C19.0506 1.05877 18.5313 1.0549 9.99994 1.0549C1.46853 1.0549 0.949272 1.05877 0.82103 1.12322ZM0.0190377 7.98837C0.0190377 11.6192 0.0236081 13.0988 0.0292331 11.2763C0.0348581 9.4538 0.0348581 6.4831 0.0292331 4.67474C0.0236081 2.86638 0.0190377 4.35752 0.0190377 7.98837ZM2.60091 2.1058C2.50166 2.21548 2.53208 2.42642 2.65619 2.48884C2.79951 2.56099 17.2004 2.56099 17.3437 2.48884C17.4678 2.42642 17.4982 2.21548 17.399 2.1058C17.3331 2.03306 17.162 2.03134 9.99994 2.03134C2.83783 2.03134 2.66673 2.03306 2.60091 2.1058ZM12.1349 3.56505C12.0571 3.62193 9.76556 9.6715 9.76556 9.81998C9.76556 10.0181 10.0335 10.1189 10.1664 9.9708C10.2477 9.88017 12.4999 3.86962 12.4999 3.74318C12.4999 3.55873 12.2862 3.45443 12.1349 3.56505ZM2.8604 4.7747C2.81162 4.79822 2.76244 4.85435 2.75111 4.89939C2.73982 4.94447 2.7358 5.61396 2.7422 6.3872L2.75384 7.79306L2.86205 8.01345C3.06779 8.43236 3.51228 8.73209 3.99025 8.77416C4.56923 8.82509 5.15865 8.44892 5.37896 7.88779C5.43783 7.73787 5.44857 7.53244 5.46001 6.33849L5.47326 4.96205L5.37509 4.86388C5.2558 4.74459 5.19767 4.74138 5.0638 4.84669L4.96087 4.92763L4.96064 6.26271C4.96052 7.10748 4.94474 7.65513 4.91771 7.754C4.85439 7.98541 4.5583 8.25767 4.30349 8.3188C4.19365 8.34517 4.03701 8.35545 3.95541 8.34166C3.61884 8.28478 3.31689 8.00236 3.24048 7.67298C3.22091 7.58865 3.20423 6.93076 3.20341 6.21103C3.20255 5.4913 3.18896 4.8831 3.17318 4.85947C3.14666 4.81974 2.9897 4.72326 2.9615 4.72931C2.9547 4.73076 2.90923 4.75119 2.8604 4.7747ZM6.52283 4.79736C6.47474 4.8363 6.43548 4.91181 6.43548 4.96533C6.43548 5.01884 6.62154 5.44533 6.849 5.9131L7.26248 6.76365L6.82603 7.63755C6.43794 8.41462 6.39384 8.52349 6.4279 8.62029C6.47892 8.76544 6.64123 8.82376 6.76451 8.74123C6.81642 8.70642 7.00462 8.39115 7.20353 8.00568L7.55165 7.33099L7.88154 7.9917C8.06294 8.35509 8.23861 8.68318 8.27189 8.7208C8.40826 8.87494 8.67181 8.75685 8.67181 8.54158C8.67181 8.484 8.48517 8.06388 8.25701 7.60802L7.8422 6.77912L8.2824 5.89607C8.7529 4.95224 8.77576 4.86466 8.57525 4.77334C8.37599 4.68255 8.31451 4.75197 7.92423 5.50822L7.55853 6.21693L7.22173 5.52377C6.82384 4.70486 6.74204 4.61986 6.52283 4.79736ZM13.2588 4.76716C13.0812 4.83287 13.0807 4.83759 13.0934 6.33494L13.1054 7.754L13.2097 7.9765C13.3426 8.2599 13.593 8.51037 13.8888 8.6556C14.0908 8.75478 14.1643 8.76951 14.4531 8.76877C14.7279 8.76806 14.8229 8.75037 15.0046 8.66584C15.3126 8.52259 15.5249 8.3158 15.6734 8.01443L15.8007 7.75587L15.8123 6.33427C15.8229 5.04044 15.8179 4.90603 15.7574 4.83919C15.6901 4.7647 15.5265 4.74255 15.4419 4.79642C15.3293 4.86795 15.3124 5.07068 15.3124 6.35185C15.3124 7.56185 15.3069 7.67029 15.2379 7.80439C15.0795 8.11228 14.8043 8.28177 14.4648 8.28048C14.0877 8.27904 13.79 8.0897 13.6544 7.76502C13.6035 7.6433 13.5937 7.40283 13.5937 6.27959C13.5937 5.16388 13.5841 4.92564 13.5363 4.8574C13.4683 4.76037 13.3667 4.72728 13.2588 4.76716ZM16.8988 4.82556C16.8659 4.85849 16.8286 4.94197 16.816 5.01111C16.8035 5.08025 16.7983 5.92502 16.8047 6.88834L16.8163 8.63986L16.9086 8.71451C17.0268 8.81029 17.1284 8.80916 17.2265 8.71103C17.3024 8.63509 17.3046 8.58084 17.3046 6.76396C17.3046 5.00298 17.3005 4.89127 17.2332 4.83037C17.1436 4.74931 16.9774 4.74693 16.8988 4.82556ZM2.65619 11.1051C2.53208 11.1675 2.50166 11.3785 2.60091 11.4881C2.66673 11.5609 2.83783 11.5626 9.99994 11.5626C17.162 11.5626 17.3331 11.5609 17.399 11.4881C17.4982 11.3785 17.4678 11.1675 17.3437 11.1051C17.2663 11.0661 15.7438 11.0559 9.99994 11.0559C4.25607 11.0559 2.73361 11.0661 2.65619 11.1051ZM9.94134 13.1332C9.33029 13.3467 9.21669 14.1677 9.74662 14.5402C9.98669 14.709 10.252 14.7263 10.5279 14.5914C10.8451 14.4362 10.957 14.2524 10.957 13.8868C10.957 13.6494 10.9413 13.584 10.8522 13.4493C10.6645 13.1658 10.2549 13.0236 9.94134 13.1332ZM10.057 13.4043C9.64767 13.512 9.56962 14.0767 9.93349 14.2985C10.3137 14.5304 10.7806 14.1708 10.6611 13.7382C10.5919 13.4874 10.3175 13.3358 10.057 13.4043ZM7.69525 16.504V17.6173H9.99994H12.3046V16.504V15.3907H9.99994H7.69525V16.504Z" fill="white"/>
</g>
<defs>
<clipPath id="clip0_14355_6880">
<rect width="20" height="20" fill="white"/>
</clipPath>
</defs>
</svg>
