<svg width="20" height="20" viewBox="0 0 20 20" fill="none" xmlns="http://www.w3.org/2000/svg">
<path fill-rule="evenodd" clip-rule="evenodd" d="M3.28406 1.12305C3.21039 1.16059 3.11371 1.24094 3.06921 1.3016C2.98851 1.4116 2.98828 1.42488 2.978 6.3602C2.9707 9.85602 2.98011 11.3387 3.01011 11.4114C3.03347 11.4679 3.10519 11.5646 3.16949 11.6262L3.2864 11.7382H9.99945H16.7125L16.817 11.6405C17.0446 11.4279 17.0313 11.7533 17.0312 6.41789C17.0312 1.81668 17.0268 1.49531 16.9628 1.36988C16.9253 1.29621 16.845 1.19953 16.7843 1.15504C16.6754 1.07512 16.6378 1.07402 13.7329 1.06367C10.8987 1.05355 10.7884 1.05586 10.7006 1.12699C10.5743 1.22926 10.5738 1.46551 10.6997 1.56746C10.786 1.63738 10.913 1.64055 13.6177 1.64055H16.4453V3.80871V5.97691L12.9635 5.96691L9.4816 5.95695L9.42765 5.74211C9.33214 5.36164 9.14929 5.04594 8.85179 4.7477C8.4023 4.29711 7.92992 4.10148 7.29132 4.10148C6.29343 4.10148 5.38234 4.8218 5.18398 5.76762L5.14015 5.97648H4.34746H3.55472V3.80852V1.64055H6.57886C8.24214 1.64055 9.63277 1.62914 9.66914 1.61516C9.84304 1.54844 9.8548 1.1832 9.68601 1.09285C9.64109 1.06883 8.46265 1.05465 6.51628 1.05469C3.64378 1.05473 3.40824 1.05973 3.28406 1.12305ZM7.10941 2.46086C7.0423 2.52797 7.03128 2.59105 7.03128 2.90855C7.03128 3.23844 7.04046 3.28668 7.11679 3.35777C7.22476 3.45836 7.39925 3.46008 7.49785 3.36148C7.65742 3.20191 7.65793 2.58086 7.49859 2.45184C7.38527 2.36008 7.20605 2.36422 7.10941 2.46086ZM5.0391 3.00773C4.99171 3.05512 4.96097 3.13793 4.96097 3.21824C4.96097 3.32898 4.99972 3.38812 5.19765 3.57957C5.32781 3.70547 5.46863 3.82117 5.51054 3.83668C5.6107 3.87375 5.76597 3.81242 5.81796 3.71531C5.91023 3.54289 5.86832 3.43332 5.61203 3.17699C5.33769 2.9027 5.18828 2.85855 5.0391 3.00773ZM8.99992 3.1832C8.74546 3.44145 8.70218 3.54848 8.78761 3.70809C8.84773 3.82043 9.03718 3.88301 9.14687 3.82676C9.27929 3.75883 9.56695 3.47531 9.63515 3.34551C9.74019 3.14559 9.59421 2.92961 9.35406 2.92961C9.2775 2.92961 9.18351 2.99691 8.99992 3.1832ZM6.74476 4.78301C6.30406 4.96422 6.03234 5.21816 5.84226 5.62652C5.6641 6.00926 5.52711 5.97648 7.30472 5.97648C9.09003 5.97648 8.94902 6.01281 8.755 5.60266C8.47394 5.00859 7.95726 4.68641 7.28882 4.68836C7.04605 4.68906 6.9198 4.71102 6.74476 4.78301ZM1.07425 5.89328C1.0098 5.93332 0.741754 6.18652 0.478551 6.45602C-0.151996 7.10168 -0.152973 7.03891 0.498082 7.70269C1.13414 8.35117 1.24086 8.41109 1.42757 8.22434C1.61238 8.03957 1.56941 7.93285 1.12679 7.47793L0.730113 7.07023L1.12679 6.66254C1.56941 6.20762 1.61238 6.1009 1.42757 5.91613C1.31285 5.80141 1.23082 5.79609 1.07425 5.89328ZM18.5725 5.91613C18.3877 6.1009 18.4307 6.20762 18.8733 6.66254L19.27 7.07023L18.8733 7.47793C18.4307 7.93285 18.3877 8.03957 18.5725 8.22434C18.7586 8.41047 18.8635 8.3518 19.502 7.70488C19.935 7.26617 20 7.18359 20 7.07289C20 6.96238 19.9343 6.87855 19.502 6.43777C18.8659 5.7893 18.7592 5.72937 18.5725 5.91613ZM3.55472 8.18352V9.80461H4.82683C5.64878 9.80461 6.12632 9.81926 6.17636 9.84606C6.36371 9.94633 6.34609 10.2561 6.14789 10.3464C6.08238 10.3763 5.64734 10.3905 4.80289 10.3905H3.55472V10.7812V11.1718H10H16.4453V9.62801V8.08422L12.9521 8.0948C9.47324 8.10535 9.45839 8.10574 9.34859 8.18738C9.19304 8.30301 9.18031 8.47961 9.31957 8.58914C9.40902 8.65953 9.4775 8.67184 9.7807 8.67203C10.1964 8.67227 10.3478 8.7077 10.5902 8.86137C11.1109 9.1916 11.0025 9.97234 10.3907 10.2982C10.2656 10.3648 10.1307 10.372 8.81136 10.3826C7.25879 10.3951 7.18906 10.3875 7.11101 10.1991C7.06281 10.0827 7.10371 9.91613 7.19488 9.85723C7.22308 9.83902 7.90246 9.81535 8.70464 9.80461L10.1632 9.78508L10.2574 9.67547C10.3729 9.54113 10.3767 9.44883 10.2707 9.35293C10.2055 9.29387 10.1019 9.27504 9.73363 9.25531C9.10343 9.22156 8.87664 9.10746 8.71 8.74031C8.51379 8.30805 8.72925 7.80137 9.19925 7.5898C9.34543 7.52398 9.5839 7.51875 12.9004 7.50852L16.4453 7.49754V7.03V6.56242H10H3.55472V8.18352ZM0.902769 13.6091C0.702769 13.72 0.706012 13.6768 0.704527 16.2421C0.703043 18.8516 0.700738 18.8236 0.922418 18.9079C0.981168 18.9302 1.99336 18.9452 3.43789 18.9452H5.85503L5.96464 18.851L6.07425 18.7567L6.08488 16.3221C6.09269 14.5386 6.08339 13.8582 6.05011 13.7778C5.95589 13.5504 6.00488 13.5545 3.39066 13.556C1.47812 13.5571 0.97734 13.5678 0.902769 13.6091ZM7.47492 13.5929C7.25921 13.6811 7.26566 13.599 7.26566 16.2616V18.7169L7.37984 18.8311L7.49402 18.9452H9.93542H12.3769L12.497 18.8441L12.6172 18.743V16.2682V13.7934L12.523 13.6838L12.4287 13.5741L9.99367 13.5664C8.65441 13.5621 7.52097 13.5741 7.47492 13.5929ZM14.09 13.617C14.03 13.6495 13.9641 13.7203 13.9436 13.7742C13.9214 13.8325 13.9063 14.8522 13.9063 16.2945V18.7169L14.0205 18.8311L14.1346 18.9452H16.557C18.0048 18.9452 19.0189 18.9302 19.0777 18.9079C19.2989 18.8237 19.2969 18.8479 19.2969 16.2772C19.2969 14.6512 19.2834 13.8792 19.2536 13.7936C19.1682 13.5488 19.2318 13.5545 16.5938 13.5562C14.5302 13.5575 14.1842 13.5659 14.09 13.617ZM1.2891 15.2201V16.2997L1.47996 16.1212C1.68144 15.9327 1.86543 15.8679 2.06015 15.9168C2.12367 15.9327 2.36808 16.142 2.6573 16.4282L3.14691 16.9127L3.71168 16.3469C4.51007 15.547 4.59902 15.531 5.16476 16.0846L5.50785 16.4203V15.2804V14.1405H3.39847H1.2891V15.2201ZM7.8516 15.2201V16.2997L8.04355 16.1202C8.25796 15.9196 8.37007 15.8773 8.58429 15.9165C8.70484 15.9385 8.81582 16.0295 9.21628 16.4343L9.70207 16.9255L10.2514 16.3547C10.5536 16.0408 10.8503 15.7657 10.9108 15.7435C11.1866 15.642 11.4283 15.7566 11.7921 16.1613L12.0298 16.4257L12.0305 15.2831L12.0313 14.1405H9.94144H7.8516V15.2201ZM14.4922 15.2201V16.2997L14.6842 16.1202C14.8988 15.9193 15.0111 15.8772 15.2249 15.917C15.3439 15.9392 15.4619 16.0342 15.8592 16.4277L16.3473 16.9112L16.9334 16.3297C17.2907 15.9753 17.5616 15.7377 17.6273 15.7213C17.8602 15.6632 17.9995 15.7315 18.3634 16.0822L18.711 16.4173V15.2789V14.1405H16.6016H14.4922V15.2201ZM4.07031 16.81C3.8082 17.0752 3.59378 17.3089 3.59378 17.3295C3.59378 17.35 3.82968 17.5901 4.11804 17.863L4.64226 18.3593H5.07507H5.50785V17.8032V17.2472L5.04949 16.7876C4.79738 16.5348 4.58113 16.328 4.56894 16.328C4.55679 16.328 4.33238 16.545 4.07031 16.81ZM10.5948 16.8346L10.1152 17.3319L10.6444 17.8456L11.1735 18.3593H11.6024H12.0313V17.8032V17.2472L11.5729 16.7876C11.3208 16.5348 11.1055 16.3301 11.0944 16.3327C11.0833 16.3352 10.8585 16.5611 10.5948 16.8346ZM17.2527 16.8293L16.7525 17.3305L17.2923 17.8437L17.8321 18.3568L18.2715 18.358L18.711 18.3593L18.7104 17.8222L18.7098 17.2851L18.2578 16.8066C18.0092 16.5434 17.7939 16.328 17.7793 16.328C17.7647 16.328 17.5278 16.5536 17.2527 16.8293ZM1.59035 16.8525L1.2891 17.1817V17.7705V18.3593H2.53121H3.77332L2.85242 17.4413C2.34593 16.9364 1.92254 16.5234 1.91156 16.5234C1.90058 16.5234 1.75605 16.6715 1.59035 16.8525ZM8.15343 16.827L7.8516 17.1305V17.7449V18.3593H9.08382H10.3161L9.39085 17.4413C8.88199 16.9364 8.46332 16.5234 8.46043 16.5234C8.45757 16.5234 8.31941 16.66 8.15343 16.827ZM14.7941 16.827L14.4922 17.1305V17.7449V18.3593H15.7305H16.9687L16.0527 17.4415C15.5489 16.9367 15.1275 16.5236 15.1163 16.5235C15.1051 16.5234 14.96 16.66 14.7941 16.827Z" fill="white"/>
</svg>
