<svg width="20" height="20" viewBox="0 0 20 20" fill="none" xmlns="http://www.w3.org/2000/svg">
<g clip-path="url(#clip0_14355_6890)">
<path fill-rule="evenodd" clip-rule="evenodd" d="M9.23693 0.0622641C8.88556 0.18703 8.59384 0.578709 8.59384 0.925741V1.09387H5.33037H2.06685L1.97099 1.18976C1.83658 1.32414 1.84357 1.49805 1.98927 1.64375L2.10345 1.75793L4.40138 1.75863L6.69931 1.75933L6.22627 2.00765C4.63048 2.84531 3.42298 4.08082 2.63357 5.68371C2.35396 6.25144 2.07197 7.06672 1.96853 7.60625L1.90002 7.96355L1.66295 8.04859C1.48056 8.11402 1.37091 8.18937 1.18748 8.37543C0.899586 8.66742 0.801969 8.90672 0.803609 9.31652C0.805562 9.80476 1.09779 10.2632 1.55127 10.4893C1.74595 10.5864 1.82369 10.6024 2.10947 10.6039C2.38884 10.6053 2.4763 10.5893 2.66103 10.5027C3.09263 10.3003 3.3617 9.94797 3.43494 9.48926C3.47795 9.21992 3.41705 9.05687 3.24709 8.98648C3.14853 8.94566 3.10228 8.94539 3.00642 8.98512C2.86447 9.04391 2.82318 9.11332 2.77314 9.37722C2.72466 9.63277 2.60775 9.79515 2.4063 9.88664C2.204 9.97848 2.0542 9.97859 1.85248 9.88699C1.55494 9.75183 1.40384 9.44016 1.48673 9.13238C1.54712 8.90812 1.77369 8.6859 1.97466 8.65387C2.05955 8.64035 2.18627 8.62047 2.25627 8.60972C2.42931 8.5832 2.4883 8.47711 2.55951 8.06426C2.98033 5.62465 4.4992 3.59082 6.69931 2.52082C7.41459 2.17297 8.0633 1.97082 8.94982 1.81953C9.18466 1.77945 9.2367 1.68515 9.24994 1.27535C9.26861 0.697616 9.3099 0.664178 10.0045 0.664178C10.7226 0.664178 10.7394 0.68121 10.741 1.41086C10.7422 1.89086 10.7344 1.95273 10.6613 2.04562C10.6168 2.10223 10.5451 2.14855 10.502 2.14855C10.3779 2.14855 10.1954 2.35703 10.1954 2.4989C10.1954 2.67277 10.3458 2.81262 10.5329 2.81262C10.9586 2.81262 11.4063 2.33476 11.4063 1.88035V1.75793H14.6515H17.8967L18.0109 1.64375C18.1566 1.49805 18.1636 1.32414 18.0292 1.18976L17.9333 1.09387H14.6698H11.4063V0.925741C11.4063 0.572616 11.1123 0.189256 10.7409 0.0582407C10.5169 -0.0208218 9.46294 -0.0179702 9.23693 0.0622641ZM13.6748 2.25148C13.4878 2.48918 13.5847 2.64914 14.1183 2.98387C15.2646 3.70277 16.3176 4.93933 16.8911 6.24004C17.1594 6.84848 17.3229 7.39293 17.4382 8.06203C17.5102 8.47957 17.5695 8.58285 17.7537 8.61156C17.8291 8.62332 17.9558 8.64316 18.0353 8.6557C18.2261 8.68574 18.4545 8.91351 18.5135 9.13238C18.5963 9.44016 18.4452 9.75183 18.1477 9.88699C17.946 9.97859 17.7962 9.97848 17.5939 9.88664C17.3924 9.79515 17.2755 9.63277 17.227 9.37722C17.177 9.11332 17.1357 9.04391 16.9938 8.98512C16.8979 8.94539 16.8517 8.94566 16.7531 8.98648C16.5831 9.05687 16.5222 9.21992 16.5652 9.48926C16.6385 9.94797 16.9076 10.3003 17.3392 10.5027C17.5239 10.5893 17.6113 10.6053 17.8907 10.6039C18.1765 10.6024 18.2542 10.5864 18.4489 10.4893C18.9024 10.2632 19.1946 9.80476 19.1966 9.31652C19.1982 8.90672 19.1006 8.66742 18.8127 8.37543C18.6293 8.18937 18.5196 8.11402 18.3372 8.04859L18.1002 7.96355L18.0317 7.60625C17.8784 6.80687 17.4477 5.72945 16.9797 4.97469C16.4652 4.14508 15.7203 3.32812 14.9538 2.75273C14.1397 2.14156 13.8504 2.0282 13.6748 2.25148ZM8.55517 4.54371C8.48021 4.56758 8.34837 4.65926 8.2622 4.7475C8.13427 4.87848 5.61646 8.90121 5.3658 9.37512C5.30939 9.48172 5.29345 9.59785 5.29326 9.90246L5.29306 10.2931L6.01033 11.9115C6.634 13.3188 6.71951 13.5354 6.66572 13.5717C6.6317 13.5946 6.53146 13.6573 6.44291 13.7111C6.25431 13.8255 6.0406 14.101 5.95384 14.3416C5.87232 14.5677 5.83951 15.1954 5.89408 15.4859C6.00728 16.0886 6.42423 16.5084 6.99998 16.5994C7.10404 16.6159 7.20041 16.6405 7.21408 16.6542C7.22775 16.6679 7.15482 17.3664 7.05201 18.2064L6.86502 19.7336L6.9424 19.8376C7.0997 20.0489 7.40568 20.0343 7.49685 19.8112C7.52025 19.754 7.6358 18.928 7.75365 17.9758C8.01795 15.8402 8.05002 16.0025 7.35603 15.9634C6.81853 15.9331 6.58877 15.7309 6.53783 15.2433C6.48552 14.7428 6.59263 14.4178 6.87205 14.2296L7.00384 14.1407H10.0001H12.9963L13.1281 14.2296C13.4076 14.4178 13.5147 14.7428 13.4624 15.2433C13.4311 15.5421 13.3148 15.7477 13.1107 15.8646L12.9493 15.9571L11.1134 15.967C10.1036 15.9724 9.23673 15.9862 9.18697 15.9977C9.13091 16.0106 9.07502 16.07 9.03998 16.1539C8.92404 16.4312 9.12017 16.6407 9.4958 16.6407H9.64388L9.65595 17.6923C9.66806 18.7439 9.66806 18.744 9.76275 18.8447C9.89322 18.9835 10.107 18.9835 10.2374 18.8447C10.3321 18.744 10.3321 18.7438 10.3442 17.695L10.3563 16.6461L11.7114 16.632C13.1994 16.6164 13.2271 16.6125 13.5724 16.3645C13.9229 16.1127 14.0934 15.7664 14.1285 15.2345C14.1819 14.4254 13.9392 13.896 13.379 13.5996L13.1837 13.4962L10.308 13.4855L7.4324 13.4747L6.68498 11.7832C5.83236 9.85347 5.83673 9.86973 6.0658 9.49C6.86513 8.16488 8.73873 5.18234 8.78228 5.16562C8.81341 5.15371 8.8672 5.16183 8.90189 5.18367C8.95818 5.21918 8.96705 5.44043 8.98447 7.2441L9.004 9.26476L9.11361 9.35898C9.25681 9.48215 9.42849 9.48152 9.55263 9.35734L9.64853 9.26148V7.18785C9.64853 5.22402 9.64459 5.10652 9.574 4.96926C9.37767 4.58758 8.96224 4.41406 8.55517 4.54371ZM10.8802 4.55246C10.6909 4.62433 10.5255 4.77617 10.4262 4.96926C10.3556 5.10656 10.3517 5.2243 10.3517 7.20437V9.29453L10.5567 9.4468C10.8196 9.64199 10.8779 9.70926 10.9754 9.92965C11.2117 10.4638 11.0227 11.0627 10.5376 11.3171C10.3602 11.4101 10.2868 11.4248 10.0001 11.4248C9.71673 11.4248 9.63943 11.4097 9.47275 11.3218C9.36533 11.2652 9.23873 11.1773 9.19146 11.1266C9.07455 11.0011 8.95779 10.724 8.92357 10.4909C8.86935 10.1211 8.55521 9.98578 8.3413 10.24C8.24689 10.3522 8.24037 10.3815 8.26529 10.5818C8.35943 11.3387 8.81107 11.8566 9.55087 12.0559C10.1441 12.2158 10.9109 11.9968 11.3094 11.5536C11.7722 11.0388 11.8792 10.2606 11.5754 9.61847C11.5206 9.50254 11.3722 9.29703 11.2457 9.16183L11.0157 8.91594V7.08C11.0157 5.12691 11.0156 5.12805 11.1982 5.1632C11.2549 5.17414 12.9578 7.86519 13.8874 9.41293C14.1585 9.86445 14.1546 9.88867 13.613 11.1093C13.3407 11.7229 13.1642 12.1707 13.1642 12.2476C13.1642 12.441 13.2795 12.557 13.472 12.557C13.5648 12.557 13.6575 12.5314 13.6929 12.4959C13.7544 12.4344 14.5951 10.5733 14.6866 10.2961C14.7614 10.0694 14.7219 9.55211 14.6137 9.34246C14.4795 9.08234 11.9234 4.95953 11.8021 4.80754C11.5907 4.54277 11.1945 4.43312 10.8802 4.55246ZM12.4362 17.7802C12.2508 17.87 12.2455 17.9413 12.3569 18.8639C12.4137 19.3355 12.4803 19.7653 12.5048 19.8191C12.6034 20.0354 12.9028 20.0457 13.0574 19.838C13.1344 19.7347 13.1343 19.7334 13.0279 18.8615C12.9693 18.3813 12.9055 17.9586 12.8862 17.922C12.7996 17.7586 12.6065 17.6977 12.4362 17.7802Z" fill="white"/>
</g>
<defs>
<clipPath id="clip0_14355_6890">
<rect width="20" height="20" fill="white"/>
</clipPath>
</defs>
</svg>
