<svg width="160" height="160" viewBox="0 0 160 160" fill="none" xmlns="http://www.w3.org/2000/svg">
<g opacity="0.2">
<path d="M98.4749 93.1504C99.1581 87.9926 95.5322 83.7375 91.001 81.1804C86.4698 78.6233 81.2135 77.7676 76.209 76.3456C71.489 75.0044 66.7946 73.0479 63.2986 69.6047C59.8026 66.1615 57.7053 60.9855 58.9623 56.2425C59.2778 55.0515 59.8417 53.8553 60.8644 53.1683C61.8871 52.4812 63.4484 52.4988 64.2113 53.4662C65.8359 55.5267 62.6701 59.2169 64.6525 60.9356C65.1076 61.3302 65.7335 61.4755 66.2045 61.8508C67.458 62.8505 67.0522 64.7939 67.2292 66.3875C67.5793 69.5391 70.5345 71.7276 73.4369 73.0044C77.3242 74.7148 81.5357 75.5187 85.6599 76.5324C89.784 77.5462 93.9424 78.8233 97.3783 81.3196C100.814 83.8159 103.795 87.7238 103.771 91.9705C103.765 93.1574 103.613 94.6166 102.869 95.5404C102.124 96.4643 101.175 96.6563 100.101 96.151C99.0272 95.6454 98.2759 94.8639 98.4749 93.1504Z" fill="#FF9B21"/>
<g opacity="0.8">
<path d="M98.4752 93.1504C99.1584 87.9926 95.5325 83.7375 91.0013 81.1804C86.4701 78.6233 81.2137 77.7676 76.2093 76.3456C71.4893 75.0044 66.7949 73.0479 63.2989 69.6047C59.8029 66.1615 57.7056 60.9855 58.9625 56.2425C59.2781 55.0515 59.8419 53.8553 60.8646 53.1683C61.8873 52.4812 63.4486 52.4988 64.2115 53.4662C65.8361 55.5267 62.6704 59.2169 64.6528 60.9356C65.1078 61.3302 65.7337 61.4755 66.2048 61.8508C67.4582 62.8505 67.0525 64.7939 67.2294 66.3875C67.5795 69.5391 70.5347 71.7276 73.4371 73.0044C77.3245 74.7148 81.536 75.5187 85.6601 76.5324C89.7843 77.5462 93.9427 78.8233 97.3785 81.3196C100.814 83.8159 103.795 87.7238 103.771 91.9705C103.765 93.1574 103.614 94.6166 102.869 95.5404C102.124 96.4643 101.176 96.6563 100.102 96.151C99.0275 95.6454 98.2761 94.8639 98.4752 93.1504Z" fill="white"/>
</g>
<path d="M76.5528 52.1511C76.3896 50.2407 77.8127 48.5774 79.4312 47.6855C81.0498 46.7937 82.9035 46.4315 84.5723 45.6404C88.7154 43.6763 91.3499 39.0539 91.5445 34.3124C91.7391 29.571 89.684 24.8324 86.4683 21.3499C85.1618 19.9348 83.5544 18.4523 83.5352 16.5217C83.5151 14.5073 85.469 12.9198 87.4207 12.9454C89.3723 12.971 91.1707 14.2772 92.3391 15.9207C93.5074 17.5643 94.1538 19.5227 94.7829 21.4455C94.3346 20.6417 95.2552 19.6459 96.1423 19.7316C97.0293 19.8174 97.7295 20.5572 98.277 21.2942C100.628 24.4596 101.792 28.5262 101.467 32.4439C101.143 36.3617 99.334 40.09 96.5077 42.6663C93.3509 45.5438 89.173 46.8939 85.124 48.1716C82.3064 49.0606 79.4888 49.9499 76.6709 50.8388" fill="#FF9B21"/>
<g opacity="0.8">
<path d="M76.5523 52.1509C76.3891 50.2405 77.8122 48.5771 79.4307 47.6853C81.0493 46.7934 82.9031 46.4312 84.5719 45.6402C88.7149 43.676 91.3495 39.0536 91.544 34.3122C91.7386 29.5707 89.6835 24.8322 86.4679 21.3496C85.1613 19.9346 83.5539 18.452 83.5347 16.5215C83.5146 14.5071 85.4685 12.9195 87.4202 12.9451C89.3719 12.9707 91.1703 14.277 92.3386 15.9205C93.5069 17.564 94.1533 19.5224 94.7824 21.4453C94.3341 20.6414 95.2547 19.6456 96.1418 19.7314C97.0288 19.8171 97.729 20.557 98.2765 21.2939C100.628 24.4594 101.791 28.5259 101.467 32.4437C101.142 36.3615 99.3335 40.0898 96.5072 42.6661C93.3504 45.5435 89.1725 46.8936 85.1235 48.1714C82.3059 49.0603 79.4883 49.9496 76.6704 50.8386" fill="white"/>
</g>
<path d="M74.2017 12.0075C73.3621 12.3608 72.9013 13.4245 73.2177 14.2789C73.5345 15.1333 74.5771 15.6395 75.4443 15.3602C76.3115 15.0808 76.8625 14.061 76.6213 13.1826C76.3797 12.3039 75.3848 11.7093 74.4965 11.9125" fill="#FF9B21"/>
<g opacity="0.8">
<path d="M74.2015 12.0078C73.3618 12.3611 72.901 13.4248 73.2175 14.2792C73.5343 15.1336 74.5769 15.6398 75.4441 15.3604C76.3113 15.0811 76.8623 14.0612 76.621 13.1828C76.3794 12.3041 75.3845 11.7096 74.4962 11.9128" fill="white"/>
</g>
<path d="M84.6261 135.309C83.59 133.161 84.4933 130.483 86.1439 128.762C87.7945 127.04 90.0492 126.058 92.2319 125.096C97.0492 122.974 102.15 120.445 104.599 115.786C105.425 114.215 105.896 112.485 106.361 110.772C107.26 107.456 108.103 103.69 106.295 100.768C105.775 99.9273 104.993 99.1795 104.019 99.007C102.912 98.8102 101.772 99.4204 101.089 100.315C100.406 101.209 100.113 102.342 99.9724 103.458C99.7036 105.582 99.9263 107.743 99.7029 109.872C99.4796 112.001 98.7007 114.227 96.9445 115.451C94.8121 116.938 91.7685 116.604 89.6972 118.175C88.0245 119.444 87.3884 121.643 86.0802 123.285C84.9807 124.665 83.4425 125.608 82.0332 126.669C80.6239 127.73 79.261 129.026 78.782 130.723C78.2847 132.487 78.9065 134.516 80.3071 135.698C81.7077 136.879 83.8117 137.151 85.4668 136.364" fill="#FF9B21"/>
<g opacity="0.8">
<path d="M84.6266 135.309C83.5905 133.16 84.4938 130.483 86.1444 128.761C87.7949 127.04 90.0497 126.057 92.2324 125.096C97.0497 122.974 102.15 120.445 104.6 115.786C105.426 114.214 105.897 112.485 106.361 110.772C107.261 107.455 108.103 103.689 106.295 100.767C105.775 99.927 104.993 99.1792 104.02 99.0067C102.912 98.8099 101.773 99.4202 101.09 100.315C100.407 101.209 100.114 102.342 99.9729 103.458C99.7041 105.582 99.9268 107.742 99.7034 109.871C99.4801 112 98.7012 114.227 96.945 115.451C94.8125 116.938 91.769 116.604 89.6977 118.175C88.025 119.444 87.3889 121.643 86.0807 123.285C84.9812 124.665 83.4429 125.608 82.0337 126.669C80.6244 127.73 79.2615 129.025 78.7825 130.723C78.2852 132.487 78.9069 134.516 80.3076 135.697C81.7082 136.879 83.8122 137.151 85.4673 136.364" fill="white"/>
</g>
<path d="M52.5848 26.834C50.8881 25.5754 49.8529 23.4717 49.8904 21.3597C49.9281 19.2477 51.0379 17.1821 52.7784 15.985C53.7624 15.3082 54.9291 14.8941 55.804 14.081C56.5819 13.3581 57.0878 12.3553 57.9582 11.7473C59.0398 10.9921 60.6088 11.0253 61.6574 11.8257C62.7057 12.6263 63.1515 14.1313 62.7077 15.3735C62.3064 16.4967 61.2984 17.3172 60.8769 18.4327C60.4235 19.6337 60.7157 20.9789 60.547 22.2516C60.34 23.8154 59.3902 25.2644 58.0385 26.0778C56.6869 26.8913 54.9617 27.0522 53.483 26.5028" fill="#FF9B21"/>
<g opacity="0.8">
<path d="M52.5845 26.8337C50.8879 25.5752 49.8527 23.4715 49.8901 21.3595C49.9279 19.2475 51.0377 17.1819 52.7781 15.9848C53.7621 15.308 54.9289 14.8939 55.8037 14.0808C56.5817 13.3579 57.0876 12.355 57.958 11.747C59.0396 10.9918 60.6085 11.0251 61.6572 11.8254C62.7055 12.6261 63.1513 14.131 62.7074 15.3733C62.3061 16.4965 61.2981 17.3169 60.8767 18.4325C60.4233 19.6334 60.7154 20.9787 60.5468 22.2513C60.3397 23.8152 59.39 25.2641 58.0383 26.0776C56.6866 26.891 54.9615 27.052 53.4828 26.5025" fill="white"/>
</g>
<path d="M54.9074 29.813H54.4389C53.4821 29.813 52.7068 29.0373 52.7068 28.0808V19.9736H56.6396V28.0808C56.6396 29.0373 55.8642 29.813 54.9074 29.813Z" fill="#FF9B21"/>
<path d="M52.7068 19.9742L54.6732 16.3674L56.6396 19.9742H52.7068Z" fill="#FFBE9D"/>
<path d="M53.8943 17.7959C53.8943 17.7959 54.4914 18.6938 55.452 17.7959L54.6732 16.3674L53.8943 17.7959Z" fill="#FF9B21"/>
<path d="M56.6949 27.6856C56.6949 27.7294 55.7998 27.7649 54.6958 27.7649C53.5915 27.7649 52.6968 27.7294 52.6968 27.6856C52.6968 27.6417 53.5918 27.6062 54.6958 27.6062C55.7998 27.6062 56.6949 27.6417 56.6949 27.6856Z" fill="#263238"/>
<path d="M56.6548 27.083C56.6548 27.1269 55.7777 27.1624 54.6961 27.1624C53.6139 27.1624 52.7371 27.1269 52.7371 27.083C52.7371 27.0392 53.6139 27.0037 54.6961 27.0037C55.778 27.0037 56.6548 27.0392 56.6548 27.083Z" fill="#263238"/>
<path d="M53.8613 20.0312C53.9052 20.0312 53.9407 21.6012 53.9407 23.5369C53.9407 25.4735 53.9052 27.0428 53.8613 27.0428C53.8175 27.0428 53.782 25.4735 53.782 23.5369C53.782 21.6009 53.8175 20.0312 53.8613 20.0312Z" fill="#FAFAFA"/>
<path d="M55.4539 20.0312C55.4977 20.0312 55.5332 21.6012 55.5332 23.5369C55.5332 25.4735 55.4977 27.0428 55.4539 27.0428C55.41 27.0428 55.3745 25.4735 55.3745 23.5369C55.3745 21.6009 55.41 20.0312 55.4539 20.0312Z" fill="#FAFAFA"/>
</g>
<path d="M86.8734 130.79L104.74 131.554L105.172 132.595L93.4619 151.603L72.322 150.987L86.8734 130.79Z" fill="#263238"/>
<path d="M71.5222 149.133L92.7891 150.348L103.897 133.11L96.0973 133.744L76.3555 140.696L71.5222 149.133Z" fill="#E0E0E0"/>
<path d="M68.5334 147.855L88.0626 148.163C87.2514 145.664 89.1647 142.145 91.79 140.962C93.5302 140.177 96.8047 139.161 98.4943 138.294C101.705 136.647 104.606 133.528 104.352 130.852L96.3314 130.597L86.0943 130.201C85.2383 132.741 83.4073 134.405 80.6236 135.405C78.1324 136.301 75.2972 136.299 72.8674 137.316C68.9564 138.954 67.077 144.261 68.5334 147.855Z" fill="#EBEBEB"/>
<path d="M68.5341 147.854C68.5341 147.854 68.5155 147.813 68.4851 147.728C68.4534 147.639 68.4093 147.514 68.3514 147.351C68.2832 147.188 68.2435 146.972 68.185 146.719C68.1149 146.468 68.0915 146.167 68.0502 145.83C68.0006 145.154 68.0077 144.31 68.2051 143.347C68.4038 142.389 68.7814 141.309 69.4576 140.248C69.633 139.987 69.8016 139.712 70.0198 139.463C70.1258 139.336 70.225 139.201 70.3395 139.076C70.4586 138.956 70.5786 138.834 70.7002 138.711C70.8173 138.583 70.952 138.471 71.0906 138.36C71.2288 138.25 71.3626 138.13 71.5088 138.024C71.815 137.831 72.1117 137.607 72.4595 137.457C73.8128 136.775 75.4294 136.487 77.113 136.182C77.9571 136.029 78.8262 135.868 79.6989 135.628C80.5677 135.381 81.4429 135.052 82.2733 134.591C82.6906 134.366 83.0938 134.103 83.4749 133.803C83.8589 133.508 84.2189 133.172 84.5411 132.796C85.1978 132.054 85.6918 131.152 86.025 130.177L86.0429 130.125L86.0976 130.127C88.8163 130.231 91.6701 130.34 94.6275 130.453C97.585 130.569 100.648 130.649 103.783 130.754C103.976 130.76 104.168 130.767 104.355 130.773L104.426 130.775L104.432 130.845C104.486 131.463 104.373 132.079 104.174 132.65C104.083 132.94 103.943 133.209 103.816 133.482C103.665 133.742 103.524 134.007 103.349 134.25C102.683 135.244 101.83 136.076 100.93 136.807C100.021 137.533 99.0362 138.136 98.0099 138.611C96.9795 139.074 95.9366 139.452 94.9149 139.83C93.8938 140.208 92.8835 140.566 91.9245 140.983C91.4541 141.202 91.0022 141.452 90.6109 141.781C90.4032 141.929 90.2301 142.116 90.0403 142.282C89.8733 142.471 89.6874 142.642 89.5389 142.843C88.9082 143.617 88.4343 144.494 88.1731 145.41C87.8967 146.32 87.8659 147.283 88.1248 148.143L88.1511 148.229L88.0621 148.228C82.1469 148.123 77.2666 148.036 73.8592 147.976C72.1613 147.941 70.8314 147.914 69.9206 147.896C69.471 147.885 69.1258 147.876 68.8874 147.87C68.6541 147.863 68.5341 147.854 68.5341 147.854C68.5341 147.854 68.6544 147.849 68.888 147.85C69.1264 147.851 69.4717 147.854 69.9213 147.856C70.8323 147.867 72.1622 147.882 73.8605 147.901C77.2678 147.948 82.1485 148.015 88.0643 148.097L88.0016 148.183C87.7302 147.292 87.7626 146.302 88.0426 145.372C88.3075 144.436 88.7882 143.543 89.4291 142.754C89.5802 142.549 89.769 142.374 89.9395 142.181C90.1325 142.011 90.3091 141.82 90.5213 141.668C90.92 141.332 91.3859 141.073 91.8653 140.849C92.8323 140.427 93.8419 140.068 94.8627 139.689C95.8832 139.31 96.9251 138.931 97.9459 138.471C98.9587 138.001 99.9344 137.404 100.832 136.686C101.722 135.962 102.564 135.138 103.218 134.162C103.39 133.924 103.528 133.663 103.676 133.409C103.8 133.143 103.936 132.88 104.024 132.598C104.217 132.043 104.325 131.451 104.274 130.86L104.35 130.932C104.163 130.926 103.971 130.92 103.778 130.914C100.643 130.809 97.5795 130.727 94.6218 130.609C91.6643 130.493 88.8106 130.382 86.0919 130.275L86.1642 130.225C85.8243 131.215 85.3187 132.135 84.6483 132.89C84.319 133.272 83.9517 133.614 83.5607 133.914C83.1722 134.217 82.7626 134.484 82.3389 134.711C81.496 135.176 80.6118 135.507 79.7334 135.753C78.8528 135.993 77.9795 136.152 77.1347 136.303C75.4502 136.603 73.8426 136.886 72.5075 137.553C72.1648 137.7 71.872 137.92 71.569 138.108C71.4243 138.212 71.2922 138.33 71.1552 138.438C71.0179 138.546 70.8845 138.656 70.7686 138.783C70.648 138.904 70.5286 139.023 70.4106 139.142C70.2966 139.264 70.1981 139.397 70.0928 139.522C69.8758 139.767 69.7078 140.039 69.5328 140.296C68.8579 141.343 68.4768 142.412 68.2726 143.362C68.0701 144.316 68.0557 145.154 68.0973 145.827C68.1347 146.162 68.1539 146.462 68.2198 146.712C68.2742 146.965 68.3098 147.181 68.3741 147.345C68.4269 147.509 68.4672 147.635 68.4963 147.725C68.5232 147.809 68.5341 147.854 68.5341 147.854Z" fill="#263238"/>
<path d="M91.5814 130.518C91.5673 130.514 91.607 130.393 91.6255 130.169C91.6425 129.947 91.6278 129.614 91.4722 129.247C91.3218 128.883 91.0223 128.481 90.549 128.257C90.0828 128.033 89.4665 127.986 88.9033 128.198C88.3359 128.407 87.9273 128.869 87.7145 129.343C87.493 129.82 87.463 130.312 87.5266 130.703C87.5906 131.097 87.7401 131.394 87.8604 131.582C87.9814 131.772 88.0716 131.862 88.0617 131.871C88.0566 131.877 87.9506 131.802 87.8098 131.617C87.67 131.434 87.4978 131.134 87.4162 130.723C87.335 130.316 87.3538 129.793 87.581 129.283C87.7986 128.778 88.2335 128.276 88.8476 128.05C89.454 127.821 90.1138 127.876 90.6137 128.126C91.1228 128.376 91.4322 128.817 91.5769 129.205C91.7273 129.599 91.7241 129.949 91.6873 130.176C91.6681 130.291 91.645 130.378 91.622 130.434C91.6002 130.491 91.5865 130.52 91.5814 130.518Z" fill="#263238"/>
<path d="M94.6409 130.518C94.6268 130.514 94.6665 130.393 94.6851 130.169C94.702 129.947 94.6873 129.614 94.5318 129.247C94.3814 128.883 94.0819 128.481 93.6086 128.257C93.1424 128.033 92.5264 127.986 91.9628 128.198C91.3955 128.407 90.9868 128.869 90.774 129.343C90.5523 129.82 90.5225 130.312 90.5862 130.703C90.6502 131.097 90.7996 131.394 90.92 131.582C91.0409 131.772 91.1312 131.862 91.1212 131.871C91.1161 131.877 91.0102 131.802 90.8694 131.617C90.7296 131.434 90.5574 131.134 90.4758 130.723C90.3945 130.316 90.4134 129.793 90.6406 129.283C90.8582 128.778 91.2931 128.276 91.9072 128.05C92.5136 127.821 93.1734 127.876 93.6732 128.126C94.1824 128.376 94.4918 128.817 94.6364 129.205C94.7868 129.599 94.7836 129.949 94.7468 130.176C94.7276 130.291 94.7046 130.378 94.6816 130.434C94.6598 130.491 94.646 130.52 94.6409 130.518Z" fill="#263238"/>
<path d="M96.9654 130.677C96.951 130.673 96.984 130.55 96.9897 130.326C96.9942 130.103 96.9606 129.772 96.7843 129.414C96.6134 129.06 96.2918 128.674 95.8067 128.478C95.3283 128.28 94.7107 128.268 94.1603 128.512C93.6057 128.752 93.2236 129.237 93.038 129.722C92.8438 130.211 92.8419 130.704 92.9273 131.091C93.0137 131.481 93.1795 131.768 93.3104 131.95C93.4419 132.132 93.5372 132.217 93.5276 132.227C93.5228 132.233 93.4128 132.164 93.2617 131.988C93.112 131.813 92.9228 131.523 92.8182 131.117C92.7139 130.715 92.703 130.191 92.9014 129.67C93.0899 129.153 93.4956 128.627 94.096 128.367C94.6883 128.105 95.3504 128.122 95.8633 128.343C96.3856 128.564 96.72 128.987 96.886 129.366C97.0585 129.751 97.0752 130.1 97.0515 130.329C97.039 130.445 97.0208 130.533 97.0009 130.591C96.9827 130.649 96.9705 130.678 96.9654 130.677Z" fill="#263238"/>
<path d="M99.4583 130.819C99.4436 130.816 99.4699 130.691 99.4638 130.467C99.4564 130.244 99.4055 129.915 99.2103 129.567C99.0209 129.222 98.6795 128.855 98.1844 128.684C97.6964 128.512 97.0788 128.533 96.5422 128.806C96.0011 129.074 95.6452 129.578 95.4855 130.073C95.3175 130.572 95.3415 131.064 95.4475 131.446C95.5543 131.831 95.7351 132.109 95.8753 132.283C96.0164 132.458 96.1159 132.538 96.107 132.548C96.1025 132.555 95.9889 132.492 95.8289 132.323C95.6699 132.157 95.466 131.877 95.3399 131.477C95.2145 131.081 95.1761 130.56 95.3463 130.028C95.5073 129.502 95.8846 128.955 96.4702 128.664C97.0478 128.37 97.7099 128.353 98.2337 128.546C98.7671 128.739 99.123 129.144 99.3092 129.514C99.5019 129.888 99.5371 130.237 99.5252 130.467C99.5188 130.583 99.5054 130.672 99.4887 130.731C99.4743 130.79 99.4638 130.82 99.4583 130.819Z" fill="#263238"/>
<path d="M101.956 130.761C101.942 130.759 101.965 130.633 101.952 130.409C101.939 130.187 101.878 129.859 101.674 129.516C101.475 129.177 101.123 128.819 100.624 128.663C100.131 128.505 99.5142 128.543 98.9855 128.831C98.4521 129.115 98.1107 129.628 97.9651 130.127C97.8111 130.631 97.8489 131.122 97.9657 131.5C98.0831 131.882 98.2719 132.155 98.4169 132.325C98.5628 132.497 98.6646 132.573 98.6559 132.584C98.6518 132.591 98.5363 132.531 98.3715 132.367C98.2079 132.205 97.9961 131.931 97.8588 131.535C97.7222 131.143 97.6691 130.622 97.8246 130.086C97.9705 129.556 98.3327 128.999 98.9097 128.691C99.479 128.382 100.14 128.345 100.669 128.524C101.208 128.702 101.575 129.096 101.772 129.461C101.975 129.83 102.02 130.177 102.015 130.407C102.011 130.523 102.001 130.613 101.986 130.672C101.971 130.731 101.962 130.762 101.956 130.761Z" fill="#263238"/>
<path d="M104.06 131.04C104.046 131.037 104.073 130.913 104.07 130.689C104.065 130.466 104.018 130.136 103.827 129.786C103.642 129.439 103.304 129.067 102.812 128.891C102.326 128.713 101.708 128.727 101.168 128.993C100.624 129.256 100.262 129.756 100.097 130.248C99.9227 130.745 99.9413 131.238 100.043 131.621C100.145 132.007 100.322 132.287 100.461 132.463C100.6 132.64 100.698 132.72 100.689 132.731C100.685 132.737 100.572 132.673 100.414 132.503C100.257 132.334 100.056 132.052 99.9345 131.651C99.8139 131.253 99.7813 130.731 99.9579 130.202C100.125 129.677 100.509 129.135 101.098 128.851C101.679 128.564 102.341 128.554 102.863 128.754C103.394 128.953 103.745 129.362 103.927 129.734C104.116 130.111 104.146 130.46 104.132 130.689C104.124 130.805 104.11 130.894 104.092 130.953C104.076 131.012 104.065 131.041 104.06 131.04Z" fill="#263238"/>
<path d="M113.265 65.489C112.424 65.4653 111.532 65.4954 110.619 65.6087C105.105 66.2919 100.996 71.0282 101.007 76.5843C101.011 78.2023 101.183 80.0128 101.692 81.8157C103.23 87.2733 103.705 92.0855 103.527 94.4279L108.678 97.1968C108.678 97.1968 111.063 93.7709 113.366 92.2928C115.669 90.8151 123.338 86.8647 126.374 82.8032C128.331 80.1847 128.707 74.8112 124.042 70.1117C121.191 67.2403 117.309 65.6029 113.265 65.489Z" fill="#77A8AF"/>
<path d="M101.088 100.388L105.741 102.903L102.712 106.75L99.6099 105.34L101.088 100.388Z" fill="#455A64"/>
<path d="M101.312 100.543C101.271 100.528 101.733 99.1467 102.344 97.4583C102.955 95.7694 103.483 94.4126 103.525 94.4276C103.566 94.4427 103.104 95.8234 102.493 97.5124C101.882 99.2007 101.354 100.558 101.312 100.543Z" fill="#263238"/>
<path d="M105.448 102.713C105.411 102.691 106.14 101.386 107.077 99.7999C108.014 98.2127 108.804 96.9442 108.842 96.9666C108.88 96.989 108.151 98.2933 107.214 99.8805C106.277 101.467 105.486 102.736 105.448 102.713Z" fill="#263238"/>
<g opacity="0.4">
<path d="M114.814 65.6355C114.605 65.647 112.045 68.6442 110.912 70.6727C107.102 77.497 106.93 84.1389 105.873 91.8832C105.722 92.9894 105.172 95.3747 105.182 95.3194C105.746 95.7613 107.641 96.641 107.641 96.641C107.641 96.641 109.428 94.4842 110.138 93.3994C112.982 89.0554 116.069 85.6691 118.503 81.0832C120.937 76.497 123.28 72.4304 121.027 67.7523C121.027 67.7523 117.126 65.5059 114.814 65.6355Z" fill="black"/>
</g>
<path d="M126.393 83.4899C126.389 83.4912 126.367 83.4406 126.327 83.3424C126.284 83.2451 126.235 83.0954 126.149 82.9098C125.981 82.5376 125.706 82.0016 125.25 81.3971C124.791 80.7981 124.152 80.1213 123.273 79.553C122.408 78.9715 121.294 78.511 120.031 78.3526L120 78.3488L119.981 78.3242C119.389 77.5258 118.711 76.7021 117.902 75.9376C117.096 75.1754 116.151 74.4739 115.064 73.9834C113.98 73.4995 112.812 73.2851 111.71 73.344C110.608 73.3997 109.574 73.7501 108.774 74.3222L108.728 74.3555L108.685 74.3178C107.729 73.4765 106.582 73.0416 105.55 72.9245C104.51 72.8045 103.588 72.9958 102.884 73.2643C102.176 73.5341 101.676 73.8771 101.353 74.1261C101.192 74.2518 101.072 74.3542 100.994 74.4259C100.915 74.497 100.873 74.5322 100.87 74.5296C100.867 74.5267 100.904 74.4861 100.979 74.4093C101.052 74.3318 101.167 74.2234 101.325 74.0909C101.642 73.8288 102.139 73.4701 102.854 73.1846C103.563 72.9008 104.501 72.6938 105.564 72.8064C106.619 72.9162 107.794 73.3517 108.78 74.2102L108.691 74.2058C109.512 73.6122 110.574 73.2483 111.702 73.1891C112.83 73.1261 114.022 73.344 115.13 73.8381C116.237 74.3376 117.195 75.0518 118.009 75.8246C118.825 76.5997 119.506 77.433 120.097 78.2387L120.048 78.2102C121.336 78.3782 122.466 78.8554 123.339 79.4534C124.226 80.0384 124.865 80.7325 125.318 81.3453C125.77 81.9638 126.035 82.511 126.19 82.8912C126.271 83.0806 126.313 83.2339 126.349 83.3338C126.382 83.4358 126.397 83.4886 126.393 83.4899Z" fill="#263238"/>
<path d="M116.816 90.2894C116.785 90.3003 116.791 89.8238 116.372 89.17C116.16 88.8526 115.844 88.492 115.383 88.2206C114.932 87.9412 114.329 87.7537 113.678 87.8168L113.614 87.8228L113.604 87.7588C113.501 87.0971 113.226 86.3931 112.759 85.7691C112.293 85.1483 111.642 84.5944 110.847 84.2856C110.195 84.0257 109.501 83.9348 108.849 83.9793C108.196 84.026 107.587 84.2113 107.07 84.482L107.021 84.5076L106.983 84.4673C106.468 83.9156 105.804 83.6062 105.194 83.4984C104.583 83.3748 104.025 83.4369 103.591 83.5486C102.71 83.7886 102.335 84.2139 102.318 84.1806C102.315 84.1777 102.338 84.154 102.386 84.1112C102.435 84.0702 102.502 84.0014 102.604 83.9304C102.804 83.7851 103.123 83.5969 103.568 83.466C104.01 83.3393 104.583 83.2638 105.216 83.3812C105.847 83.483 106.543 83.795 107.089 84.3704L107.002 84.3556C107.535 84.0712 108.164 83.8756 108.839 83.8248C109.512 83.7758 110.23 83.8683 110.907 84.1377C111.731 84.4587 112.405 85.0344 112.882 85.6779C113.362 86.3249 113.639 87.0539 113.738 87.7384L113.664 87.6808C114.352 87.6212 114.979 87.8283 115.441 88.1252C115.914 88.4148 116.231 88.7944 116.439 89.1268C116.645 89.4644 116.736 89.7646 116.78 89.9694C116.802 90.0718 116.806 90.1531 116.813 90.2065C116.819 90.2609 116.82 90.2888 116.816 90.2894Z" fill="#263238"/>
<path d="M104.843 104.115C104.831 104.124 104.792 104.051 104.672 104.002C104.552 103.951 104.358 103.945 104.127 104.018C104.01 104.05 103.876 104.093 103.716 104.094C103.556 104.096 103.379 104.019 103.256 103.891C103.009 103.634 102.915 103.262 102.682 103.005C102.566 102.879 102.415 102.815 102.253 102.824C102.092 102.831 101.93 102.884 101.768 102.921C101.607 102.959 101.437 102.984 101.28 102.947C101.125 102.914 100.997 102.837 100.899 102.752C100.702 102.579 100.615 102.375 100.593 102.235C100.569 102.093 100.592 102.014 100.6 102.015C100.613 102.015 100.613 102.093 100.653 102.22C100.691 102.345 100.786 102.522 100.97 102.665C101.062 102.735 101.176 102.796 101.306 102.818C101.435 102.843 101.58 102.82 101.733 102.779C101.887 102.74 102.053 102.679 102.247 102.668C102.443 102.651 102.661 102.741 102.797 102.895C103.068 103.203 103.153 103.569 103.362 103.789C103.462 103.897 103.589 103.957 103.719 103.962C103.851 103.967 103.98 103.934 104.101 103.909C104.344 103.846 104.572 103.869 104.699 103.946C104.829 104.024 104.85 104.115 104.843 104.115Z" fill="#263238"/>
<path d="M105.376 103.367C105.355 103.406 104.339 102.904 103.106 102.246C101.872 101.588 100.889 101.024 100.91 100.985C100.931 100.946 101.947 101.448 103.181 102.106C104.414 102.764 105.397 103.328 105.376 103.367Z" fill="#263238"/>
<path d="M104.452 104.541C104.454 104.553 104.387 104.573 104.275 104.625C104.218 104.65 104.153 104.689 104.064 104.724C103.976 104.761 103.861 104.775 103.744 104.766C103.511 104.75 103.225 104.677 102.977 104.471C102.854 104.37 102.75 104.223 102.684 104.068C102.616 103.917 102.562 103.761 102.459 103.65C102.246 103.422 101.902 103.398 101.616 103.408C101.323 103.419 101.033 103.428 100.807 103.331C100.584 103.237 100.449 103.079 100.398 102.956C100.346 102.83 100.364 102.753 100.372 102.754C100.386 102.752 100.39 102.825 100.453 102.927C100.514 103.028 100.645 103.156 100.847 103.226C101.048 103.298 101.311 103.282 101.611 103.262C101.903 103.246 102.297 103.251 102.577 103.542C102.709 103.689 102.763 103.862 102.827 104.005C102.887 104.151 102.967 104.267 103.073 104.36C103.283 104.545 103.541 104.626 103.754 104.654C103.97 104.694 104.125 104.604 104.253 104.567C104.378 104.531 104.45 104.532 104.452 104.541Z" fill="#263238"/>
<path d="M69.3195 74.6548L77.3662 73.4615L73.5188 68.0112L71.4558 68.1328C70.0673 68.2147 68.8433 69.0727 68.2929 70.3501C68.0004 71.0285 67.9191 71.7792 68.0593 72.5047L69.3195 74.6548Z" fill="#FF9B21"/>
<path opacity="0.4" d="M69.3195 74.6548L77.3662 73.4615L73.5188 68.0112L71.4558 68.1328C70.0673 68.2147 68.8433 69.0727 68.2929 70.3501C68.0004 71.0285 67.9191 71.7792 68.0593 72.5047L69.3195 74.6548Z" fill="black"/>
<path d="M103.885 83.5711C103.968 83.8015 104.059 84.0745 104.15 84.4005C104.229 84.6805 104.257 84.9724 104.237 85.2626C104.213 85.6143 104.162 86.0809 104.056 86.3273C103.923 86.6325 104.231 86.9397 104.491 86.7871C104.752 86.6345 105.137 85.8025 105.113 84.7314C105.09 83.6604 106.182 84.9442 106.589 85.4047C106.995 85.8652 108.32 87.2316 108.561 87.2188C108.913 87.1999 108.958 86.8185 108.542 86.3679C108.12 85.9119 106.97 84.478 107.224 84.2751C107.474 84.0751 109.512 86.4485 109.512 86.4485C109.512 86.4485 109.865 87.0265 110.166 86.8015C110.709 86.3961 108.357 84.0325 108.128 83.8133C107.968 83.6607 108.236 83.4306 108.398 83.6034C108.566 83.7813 110.376 86.0181 110.932 85.6105C111.359 85.2978 109.016 83.6485 108.898 82.9759C108.78 82.3033 110.548 84.4073 110.943 84.0921C111.091 83.9746 111.184 83.8665 109.995 82.8047C109.417 82.2892 107.222 80.7532 107.222 80.7532L100.618 61.8428L95.5173 64.7637L103.885 83.5711Z" fill="#FFBE9D"/>
<path d="M64.5676 47.8077L57.1872 38.9997L57.1865 39C57.0908 38.6973 56.976 38.402 56.8256 38.122C56.4566 37.4349 55.8464 36.8362 55.0844 36.6695C54.6163 36.5671 54.0806 36.6164 53.7132 36.3085C53.5491 36.1709 53.4397 35.9751 53.2675 35.8474C53.0957 35.7197 52.8089 35.6951 52.6988 35.8791C52.6204 36.01 52.6704 36.1776 52.7296 36.3181C53.0035 36.9684 53.4512 37.5428 54.0108 37.9719C53.3187 38.1821 52.3305 38.5002 52.3305 38.5002C52.3305 38.5002 50.7702 36.8074 49.9712 36.8128C49.1721 36.8183 50.6169 38.3242 50.6169 38.3242C50.6169 38.3242 49.3373 37.1418 48.9405 37.4749C48.5437 37.8084 49.5606 38.6861 49.5606 38.6861C49.2374 38.5133 48.8838 38.3354 48.5225 38.3952C48.1613 38.4554 47.8502 38.882 48.0448 39.192C48.1193 39.3111 48.247 39.384 48.3699 39.4525C49.0246 39.8173 49.6793 40.1824 50.3344 40.5476C50.663 40.7309 51.0083 40.9188 51.3846 40.9303C52.3811 40.961 53.1388 40.344 54.1353 40.3706C54.1353 40.3706 59.7008 52.0861 60.2636 52.6903C60.8265 53.2944 73.0531 54.1172 73.0531 54.1172L80.1296 48.0202L64.5676 47.8077Z" fill="#FFBE9D"/>
<path d="M86.7351 111.624L94.272 114.906L90.2359 124.304C89.3616 123.863 89.6474 118.228 89.6474 118.228L84.7322 116.323L86.7351 111.624Z" fill="#FF9B21"/>
<g opacity="0.6">
<path d="M90.4871 115.146C90.6151 114.986 90.8734 114.948 91.0391 115.069C91.2049 115.19 91.2455 115.453 91.1204 115.615C90.9953 115.778 90.6865 115.833 90.5355 115.694C90.3844 115.555 90.3534 115.244 90.5137 115.116" fill="white"/>
</g>
<path opacity="0.6" d="M94.2705 114.906L93.498 114.605L89.9172 123.728C89.9172 123.728 89.9195 124.225 90.2347 124.304L94.2705 114.906Z" fill="white"/>
<path d="M89.5334 118.36C89.5801 118.378 89.6992 118.157 89.944 117.995C90.1843 117.826 90.4329 117.795 90.4329 117.745C90.4422 117.699 90.1385 117.649 89.8457 117.851C89.5513 118.051 89.487 118.351 89.5334 118.36Z" fill="#263238"/>
<path d="M89.5177 119.521C89.5577 119.55 89.7209 119.385 89.982 119.313C90.2409 119.232 90.4678 119.283 90.4854 119.237C90.5113 119.197 90.2559 119.05 89.9331 119.146C89.6095 119.239 89.4742 119.501 89.5177 119.521Z" fill="#263238"/>
<path d="M90.4579 120.587C90.4858 120.549 90.2838 120.387 89.9818 120.397C89.6797 120.404 89.4877 120.578 89.5174 120.614C89.544 120.656 89.7386 120.575 89.9866 120.57C90.2349 120.561 90.4339 120.631 90.4579 120.587Z" fill="#263238"/>
<path d="M88.4627 117.801C88.5126 117.799 88.5398 117.561 88.6688 117.31C88.7926 117.055 88.9664 116.891 88.9373 116.85C88.9155 116.809 88.6611 116.933 88.5133 117.232C88.3632 117.529 88.417 117.808 88.4627 117.801Z" fill="#263238"/>
<path d="M87.4432 117.098C87.462 117.107 87.5683 116.937 87.6428 116.626C87.6796 116.471 87.7056 116.281 87.703 116.069C87.7014 115.963 87.6931 115.851 87.6755 115.737C87.6662 115.682 87.6601 115.618 87.6259 115.547C87.6 115.476 87.4905 115.395 87.3907 115.422C87.2979 115.438 87.23 115.51 87.1993 115.577C87.1673 115.646 87.1571 115.708 87.1478 115.764C87.1283 115.88 87.1209 115.993 87.1225 116.1C87.127 116.315 87.1676 116.505 87.2211 116.656C87.3292 116.961 87.4688 117.109 87.4844 117.097C87.5084 117.083 87.4102 116.915 87.3392 116.622C87.3036 116.475 87.2787 116.297 87.2828 116.1C87.2854 116.002 87.2956 115.899 87.3155 115.794C87.3321 115.684 87.3676 115.598 87.423 115.592C87.4438 115.59 87.4512 115.592 87.4713 115.625C87.4889 115.658 87.4979 115.71 87.5072 115.764C87.5257 115.871 87.5369 115.974 87.5424 116.074C87.5532 116.273 87.5414 116.454 87.5212 116.604C87.4816 116.905 87.4182 117.088 87.4432 117.098Z" fill="#263238"/>
<path d="M87.5342 117.067C87.5482 117.053 87.4228 116.891 87.1329 116.747C86.9889 116.676 86.8036 116.615 86.5898 116.59C86.4833 116.579 86.3697 116.576 86.2526 116.587C86.1361 116.602 85.9828 116.616 85.8858 116.785C85.8423 116.877 85.882 116.985 85.9326 117.038C85.9828 117.097 86.0346 117.126 86.0842 117.161C86.1866 117.225 86.2951 117.269 86.401 117.297C86.6138 117.353 86.8154 117.343 86.9735 117.305C87.2961 117.226 87.433 117.058 87.4193 117.047C87.403 117.022 87.2455 117.144 86.9511 117.184C86.8062 117.203 86.6273 117.2 86.4449 117.143C86.354 117.115 86.2622 117.074 86.1767 117.017C86.083 116.96 86.0186 116.888 86.0449 116.855C86.0641 116.808 86.1735 116.761 86.2698 116.756C86.3748 116.744 86.4775 116.743 86.5751 116.749C86.7703 116.763 86.9438 116.807 87.0839 116.859C87.3658 116.966 87.5166 117.089 87.5342 117.067Z" fill="#263238"/>
<path d="M80.9299 124.534L84.0471 131.065L85.0234 136.942C85.0938 137.365 85.5079 137.641 85.9258 137.542C86.1597 137.486 86.3514 137.323 86.4413 137.1C87.0144 135.681 89.0963 130.452 88.8413 129.986C88.5462 129.448 86.0103 122.879 86.0103 122.879L80.9299 124.534Z" fill="#FF9B21"/>
<path opacity="0.6" d="M85.925 137.542L88.6406 129.542L88.7663 129.821C88.8751 130.063 88.8956 130.335 88.8217 130.59C88.6239 131.271 88.0367 133.139 86.4607 137.092C86.3692 137.322 86.1673 137.492 85.925 137.542Z" fill="white"/>
<g opacity="0.6">
<path d="M86.331 128.021C86.2171 128.209 86.2754 128.484 86.4594 128.605C86.6434 128.727 86.9227 128.67 87.0402 128.483C87.1573 128.297 87.0974 127.965 86.901 127.865C86.7048 127.765 86.38 127.849 86.3109 128.059" fill="white"/>
</g>
<path d="M86.1391 133.98C86.11 134.015 85.8056 133.736 85.3295 133.727C84.8536 133.703 84.5307 133.96 84.5042 133.923C84.4911 133.909 84.5516 133.821 84.6965 133.73C84.8396 133.638 85.0725 133.56 85.3352 133.568C85.598 133.578 85.8248 133.673 85.9612 133.774C86.0991 133.875 86.1532 133.967 86.1391 133.98Z" fill="#263238"/>
<path d="M86.0648 135.075C86.0462 135.118 85.7377 134.998 85.3525 135.054C84.9659 135.101 84.6997 135.297 84.6705 135.261C84.6363 135.235 84.891 134.953 85.3313 134.896C85.771 134.835 86.091 135.042 86.0648 135.075Z" fill="#263238"/>
<path d="M86.5046 132.454C86.4877 132.499 86.0144 132.313 85.4077 132.347C84.8003 132.372 84.3472 132.603 84.3261 132.559C84.2995 132.529 84.7488 132.217 85.4 132.188C86.0509 132.154 86.528 132.421 86.5046 132.454Z" fill="#263238"/>
<path d="M85.7222 130.39C85.7222 130.437 85.2892 130.448 84.807 130.645C84.3219 130.834 84 131.124 83.9673 131.089C83.9347 131.065 84.2275 130.702 84.7481 130.497C85.2668 130.287 85.7292 130.35 85.7222 130.39Z" fill="#263238"/>
<path d="M84.8548 128.449C84.8516 128.496 84.386 128.441 83.8951 128.689C83.3988 128.926 83.1582 129.329 83.1188 129.303C83.1018 129.294 83.1367 129.179 83.2494 129.022C83.3607 128.866 83.5598 128.678 83.825 128.547C84.091 128.416 84.3617 128.374 84.553 128.381C84.7454 128.387 84.858 128.43 84.8548 128.449Z" fill="#263238"/>
<path d="M83.7415 128.315C83.7332 128.319 83.6785 128.237 83.6202 128.07C83.563 127.903 83.5037 127.647 83.5249 127.327C83.5412 127.172 83.5444 126.981 83.6897 126.811C83.7617 126.726 83.9057 126.682 84.0234 126.734C84.1393 126.784 84.2126 126.882 84.2618 126.985C84.4433 127.407 84.2657 127.974 83.8215 128.246C83.3716 128.511 82.8215 128.434 82.4718 128.156C82.3886 128.081 82.3085 127.978 82.3098 127.844C82.3095 127.709 82.4234 127.603 82.5255 127.577C82.7348 127.518 82.9092 127.576 83.0618 127.608C83.3716 127.689 83.5988 127.818 83.7428 127.918C83.8877 128.02 83.9527 128.094 83.9466 128.101C83.9313 128.128 83.634 127.851 83.0359 127.717C82.8884 127.691 82.7146 127.652 82.5677 127.702C82.4961 127.726 82.449 127.78 82.4494 127.847C82.4481 127.911 82.4993 127.988 82.5677 128.045C82.8593 128.27 83.3623 128.34 83.739 128.11C84.1156 127.885 84.2708 127.386 84.1281 127.045C84.0926 126.964 84.034 126.892 83.969 126.863C83.905 126.835 83.834 126.851 83.7844 126.903C83.6791 127.012 83.6554 127.19 83.6369 127.337C83.5764 127.946 83.7738 128.309 83.7415 128.315Z" fill="#263238"/>
<path d="M91.4338 112.422L82.8879 106.669L85.716 78.8952L77.621 74.1678L70.2184 72.4526C70.2184 72.4526 67.1266 78.8843 65.7519 83.0018C62.8277 91.7586 60.7752 94.8968 61.2443 101.244C61.3928 103.253 68.8114 108.279 73.4965 111.071C73.5608 111.712 73.6427 112.272 73.7451 112.734C75.3461 119.971 80.2328 129.596 80.2328 129.596L87.6597 126.143L85.2632 117.936L87.7592 119.392L91.4338 112.422ZM73.0639 94.5128L74.061 90.061C73.8501 92.8914 73.6575 95.8446 73.5195 98.6763C73.0395 97.3675 72.876 95.9131 73.0639 94.5128Z" fill="#2B44FF"/>
<path d="M80.2315 129.595C80.2289 129.596 80.2094 129.556 80.1739 129.478C80.1361 129.392 80.0853 129.276 80.02 129.128C79.8856 128.811 79.6926 128.355 79.4459 127.773C78.9525 126.595 78.2462 124.886 77.3963 122.766C76.5512 120.643 75.5445 118.116 74.5307 115.269C74.2782 114.557 74.0305 113.823 73.7979 113.065C73.6949 112.681 73.5656 112.303 73.4981 111.897C73.4785 111.797 73.4558 111.696 73.4395 111.595L73.404 111.292C73.3813 111.09 73.3589 110.886 73.3358 110.682C73.2488 109.864 73.1768 109.03 73.1233 108.182C73.0965 107.758 73.0734 107.331 73.0568 106.9C73.0414 106.471 73.0219 106.033 73.0469 105.597C73.1723 102.107 73.4657 98.799 73.707 95.7878C73.9585 92.7798 74.1851 90.07 74.3755 87.7916C74.5598 85.5151 74.6888 83.6716 74.7617 82.3967C74.8014 81.7593 74.8235 81.2643 74.8385 80.9283C74.8475 80.7663 74.8542 80.6396 74.8593 80.5462C74.8648 80.4601 74.8693 80.4163 74.8718 80.4163C74.8744 80.4163 74.8757 80.4604 74.8757 80.5468C74.8744 80.6403 74.8728 80.767 74.8709 80.9292C74.8661 81.2655 74.8542 81.7615 74.8238 82.3996C74.7697 83.6761 74.6581 85.5219 74.4878 87.7999C74.307 90.0793 74.092 92.79 73.8533 95.7993C73.6203 98.8095 73.331 102.121 73.2062 105.6C73.1816 106.034 73.2008 106.463 73.2158 106.893C73.2325 107.322 73.2549 107.749 73.2814 108.171C73.3342 109.017 73.4053 109.849 73.491 110.665C73.5134 110.869 73.5358 111.072 73.5582 111.274L73.5931 111.576C73.6094 111.675 73.6315 111.772 73.6501 111.87C73.7141 112.261 73.8427 112.642 73.9438 113.021C74.1736 113.775 74.419 114.508 74.6693 115.22C75.6737 118.066 76.6696 120.597 77.5009 122.724C78.3441 124.84 79.0273 126.555 79.5032 127.749C79.7381 128.336 79.9217 128.795 80.0497 129.115C80.1089 129.266 80.155 129.384 80.1889 129.471C80.2197 129.552 80.2341 129.594 80.2315 129.595Z" fill="#455A64"/>
<path d="M74.52 79.478C74.5129 79.4863 74.4451 79.4313 74.3251 79.3203C74.2137 79.2031 74.0787 79.006 73.9638 78.7395C73.7337 78.2047 73.6169 77.4067 73.5996 76.5359C73.5836 75.663 73.6483 74.8767 73.7056 74.3107C73.7644 73.7446 73.8128 73.3961 73.8339 73.3977C73.8563 73.3993 73.8476 73.752 73.8176 74.3193C73.7891 74.8867 73.7427 75.6697 73.7584 76.5327C73.7756 77.3935 73.8732 78.1744 74.0684 78.6985C74.166 78.96 74.28 79.1558 74.3724 79.2806C74.4729 79.3984 74.5267 79.4697 74.52 79.478Z" fill="#455A64"/>
<path d="M71.3237 72.8677C71.3397 72.8642 71.4168 73.1589 71.3874 73.6447C71.3608 74.1259 71.1967 74.8037 70.7749 75.4232C70.3525 76.0427 69.782 76.4434 69.3436 76.6443C68.902 76.8495 68.5999 76.8856 68.5973 76.8693C68.5896 76.8431 68.8783 76.7682 69.293 76.5439C69.7058 76.3234 70.2402 75.9256 70.6437 75.3336C71.0469 74.7416 71.2216 74.0991 71.2757 73.6341C71.3324 73.1663 71.2965 72.8703 71.3237 72.8677Z" fill="#455A64"/>
<path d="M84.6047 89.0151C84.6076 89.0155 84.607 89.0439 84.6031 89.0999C84.5977 89.1646 84.591 89.2459 84.5823 89.347C84.5593 89.5755 84.5276 89.8926 84.4873 90.2951C84.3964 91.1303 84.2668 92.3175 84.1078 93.7799C83.7737 96.731 83.3142 100.788 82.807 105.269C82.6108 107.513 82.8066 109.672 83.2278 111.575C83.4358 112.528 83.7116 113.413 84.0015 114.232C84.2889 115.053 84.5567 115.818 84.8019 116.517C85.2835 117.907 85.6748 119.035 85.95 119.829C86.0793 120.212 86.181 120.514 86.2546 120.732C86.2854 120.828 86.3103 120.906 86.3302 120.968C86.3465 121.021 86.3532 121.049 86.3506 121.05C86.3481 121.051 86.3359 121.025 86.3148 120.973C86.2911 120.913 86.2614 120.837 86.2246 120.742C86.1442 120.527 86.0332 120.228 85.8918 119.849C85.6054 119.06 85.1977 117.937 84.6962 116.554C84.4457 115.856 84.1718 115.094 83.8777 114.276C83.5814 113.457 83.2985 112.565 83.0854 111.606C82.6534 109.692 82.4511 107.516 82.6489 105.255C83.1487 100.762 83.6454 96.7083 83.9964 93.7681C84.1769 92.3083 84.3231 91.123 84.4262 90.2891C84.4793 89.8878 84.5209 89.5716 84.551 89.3438C84.566 89.2433 84.5778 89.1627 84.5874 89.0983C84.5961 89.043 84.6022 89.0148 84.6047 89.0151Z" fill="#455A64"/>
<path d="M70.2175 72.3997L71.5282 69.0503L74.5196 73.5108L70.5315 72.5137" fill="#FFBE9D"/>
<path d="M101.521 62.3314L97.9705 54.3727C97.5462 53.093 96.75 52.8943 96.0831 52.1519L87.1894 47.1359C80.7078 44.4812 77.1788 53.3845 77.1788 53.3845L71.2876 66.822C64.3599 69.1186 69.2652 74.4393 69.2652 74.4393C69.2652 74.4393 67.3807 71.1637 69.2338 69.982C71.1743 68.7445 73.3257 72.0047 75.3926 75.1013C77.8329 78.757 85.7625 81.1317 85.7625 81.1317C86.6902 80.1519 86.4306 76.7314 87.1567 74.8956C87.3871 74.3135 92.8783 61.5945 92.8783 61.5945L95.007 66.7516C95.007 66.7516 97.7356 63.5525 99.0578 63.0441C100.38 62.5349 101.521 62.3314 101.521 62.3314Z" fill="#FF9B21"/>
<path d="M85.7628 67.9872C85.7679 67.9956 85.6748 68.0663 85.4937 68.1751C85.3129 68.2842 85.0393 68.4244 84.6844 68.5584C83.9811 68.8295 82.9164 69.0397 81.7619 68.8615C80.607 68.6832 79.6553 68.1617 79.0662 67.6913C78.7686 67.4564 78.55 67.2404 78.4105 67.0817C78.2707 66.9233 78.2031 66.8276 78.2105 66.8212C78.2326 66.8004 78.5315 67.162 79.134 67.6013C79.7295 68.0404 80.6636 68.5309 81.7862 68.7044C82.9084 68.8775 83.9468 68.6916 84.647 68.4525C85.3539 68.2154 85.7481 67.9607 85.7628 67.9872Z" fill="#263238"/>
<path d="M71.0235 55.3664L76.5121 55.8841L85.2923 46.6038L80.1285 46.4265L70.9326 47.334C70.9326 47.334 71.747 51.167 71.0235 55.3664Z" fill="#FF9B21"/>
<path d="M78.6477 50.4766C78.6525 50.4792 78.6291 50.5377 78.5805 50.6469C78.5229 50.7707 78.4499 50.9275 78.3603 51.1205C78.1591 51.5502 77.8829 52.1397 77.5459 52.8593C76.8634 54.3301 75.9578 56.3787 74.9763 58.6504C73.9949 60.923 73.1018 62.979 72.4269 64.4546C72.0899 65.1928 71.8119 65.7873 71.6119 66.1947C71.5171 66.3854 71.44 66.5403 71.3792 66.6625C71.3245 66.7688 71.2935 66.8235 71.2883 66.8209C71.2832 66.8187 71.3047 66.7595 71.3501 66.6488C71.4039 66.523 71.472 66.364 71.5555 66.1685C71.7456 65.7336 72.0058 65.1371 72.3239 64.4085C72.9728 62.9013 73.8551 60.8517 74.8301 58.5867C75.8119 56.3144 76.7347 54.2709 77.4439 52.811C77.7975 52.0805 78.0915 51.4933 78.3047 51.0923C78.4051 50.9048 78.4871 50.7522 78.5517 50.6318C78.6099 50.5278 78.6426 50.4744 78.6477 50.4766Z" fill="#263238"/>
<path d="M95.3984 53.1753C95.4138 53.2022 95.0733 53.3798 94.609 53.775C94.3751 53.9702 94.1216 54.231 93.8672 54.5421C93.6202 54.8589 93.3764 55.2288 93.1712 55.6448C92.9719 56.0637 92.8324 56.4845 92.7367 56.8745C92.6503 57.2669 92.6023 57.6275 92.594 57.9318C92.5716 58.5411 92.6429 58.9181 92.6122 58.9229C92.6013 58.9248 92.5783 58.8323 92.5453 58.6617C92.5271 58.5766 92.5095 58.472 92.5024 58.3485C92.4938 58.2256 92.4749 58.0851 92.4816 57.9296C92.4756 57.6182 92.5127 57.247 92.5936 56.8425C92.6836 56.4403 92.8228 56.0057 93.0279 55.5753C93.2388 55.1478 93.4935 54.7693 93.7533 54.4496C94.0205 54.1353 94.289 53.8765 94.5373 53.6883C94.6554 53.5865 94.777 53.5142 94.8791 53.4451C94.9802 53.3744 95.0736 53.3232 95.1517 53.2848C95.3063 53.2048 95.3933 53.1654 95.3984 53.1753Z" fill="#263238"/>
<path d="M96.9312 40.4291L91.7821 50.0537C90.9415 51.6253 89.0288 52.279 87.4023 51.551C85.6112 50.7497 84.8701 48.6003 85.7875 46.8659C86.273 45.9478 86.6759 45.1981 86.6759 45.1981C86.6759 45.1981 84.4371 43.7472 85.4842 41.3283C86.4183 39.1702 89.8474 33.079 90.5757 31.791L94.9155 33.7331C97.3527 34.9993 98.2643 38.0278 96.9312 40.4291Z" fill="#FFBE9D"/>
<path d="M86.6895 45.1624C86.6895 45.1624 88.1545 45.9662 90.2246 45.6744C90.2246 45.6744 88.7084 47.074 86.405 45.7832L86.6895 45.1624Z" fill="#EB996E"/>
<path d="M88.3407 37.4673C88.253 37.6459 88.3321 37.8673 88.5167 37.9623C88.701 38.0571 88.9218 37.9895 89.0095 37.811C89.0972 37.6324 89.0182 37.411 88.8338 37.3163C88.6492 37.2212 88.4281 37.2887 88.3407 37.4673Z" fill="#263238"/>
<path d="M88.3633 37.1605C88.3861 37.2242 88.7323 37.1483 89.1016 37.3147C89.4728 37.4757 89.659 37.7874 89.7192 37.7598C89.748 37.7486 89.7406 37.6485 89.6609 37.5096C89.5832 37.372 89.4219 37.1998 89.1912 37.0978C88.9605 36.996 88.7288 36.9941 88.5787 37.0309C88.4261 37.067 88.3512 37.131 88.3633 37.1605Z" fill="#263238"/>
<path d="M91.7977 39.1678C91.7101 39.3464 91.7891 39.5678 91.9741 39.6626C92.1584 39.7573 92.3792 39.6898 92.4669 39.5112C92.5545 39.3326 92.4755 39.1109 92.2912 39.0162C92.1062 38.9214 91.8854 38.9893 91.7977 39.1678Z" fill="#263238"/>
<path d="M91.9631 38.8554C91.9858 38.9194 92.3324 38.8432 92.7014 39.0096C93.0726 39.1706 93.2588 39.4823 93.3193 39.4547C93.3478 39.4435 93.341 39.3434 93.261 39.2042C93.183 39.0666 93.022 38.8944 92.7913 38.7923C92.5602 38.6906 92.3289 38.6887 92.1785 38.7255C92.0262 38.7623 91.9513 38.8259 91.9631 38.8554Z" fill="#263238"/>
<path d="M89.3968 40.9969C89.408 40.9768 89.1959 40.834 88.8448 40.62C88.7549 40.5681 88.6739 40.5092 88.6867 40.4376C88.6951 40.3595 88.7802 40.2753 88.8749 40.186C89.0659 39.9972 89.2659 39.7995 89.4759 39.5921C90.3216 38.7422 90.9789 38.0264 90.9443 37.9924C90.9098 37.9588 90.1965 38.6203 89.3507 39.4702C89.1443 39.6808 88.9475 39.8814 88.7597 40.0737C88.6759 40.1649 88.56 40.2593 88.545 40.4222C88.5389 40.5041 88.5853 40.5864 88.6384 40.6296C88.6906 40.675 88.7434 40.7 88.7888 40.7236C89.1543 40.9115 89.3859 41.0174 89.3968 40.9969Z" fill="#263238"/>
<path d="M90.3701 41.7392C90.3115 41.7088 90.1313 42.1098 89.6603 42.241C89.1896 42.3731 88.7819 42.1366 88.7537 42.1914C88.7368 42.2141 88.8142 42.312 88.9925 42.3977C89.1669 42.4832 89.451 42.5421 89.739 42.4617C90.0267 42.3808 90.2209 42.1881 90.3086 42.0294C90.3989 41.8685 90.3985 41.7491 90.3701 41.7392Z" fill="#263238"/>
<path d="M92.5163 37.3648C92.5076 37.4816 92.898 37.5991 93.3086 37.8455C93.7239 38.0835 94.0167 38.3671 94.1147 38.3027C94.1598 38.2711 94.1409 38.1491 94.043 37.9885C93.9463 37.8285 93.7639 37.6362 93.5166 37.4906C93.2689 37.3456 93.0119 37.2803 92.8254 37.2739C92.6375 37.2669 92.522 37.3101 92.5163 37.3648Z" fill="#263238"/>
<path d="M88.9777 36.1509C89.0053 36.2639 89.2987 36.2907 89.6069 36.4239C89.9195 36.5461 90.147 36.7333 90.2462 36.6722C90.2913 36.6411 90.2881 36.5387 90.2104 36.4088C90.1342 36.2795 89.9765 36.1314 89.763 36.0434C89.5496 35.956 89.3333 35.9503 89.1883 35.9887C89.0417 36.0267 88.9675 36.0971 88.9777 36.1509Z" fill="#263238"/>
<path d="M95.3134 41.8733C95.3624 41.8739 97.1851 42.1242 96.3966 43.7453C95.6082 45.3664 94.1432 44.2403 94.163 44.1927C94.1829 44.1447 95.3134 41.8733 95.3134 41.8733Z" fill="#FFBE9D"/>
<path d="M94.9554 43.8194C94.965 43.8178 94.974 43.853 95.0111 43.8981C95.0472 43.9419 95.1202 43.9957 95.22 44.005C95.422 44.0255 95.6984 43.8235 95.8482 43.5352C95.924 43.3896 95.9615 43.2341 95.966 43.0923C95.9743 42.9496 95.9378 42.8296 95.8591 42.7723C95.7829 42.7106 95.6968 42.7327 95.6546 42.7685C95.6108 42.8034 95.6053 42.8405 95.5954 42.8392C95.589 42.8411 95.5736 42.7951 95.6194 42.7346C95.6418 42.7058 95.6792 42.6767 95.7327 42.6642C95.7871 42.6514 95.852 42.6632 95.909 42.6987C96.03 42.7682 96.0863 42.9378 96.0818 43.0936C96.0837 43.2533 96.045 43.4296 95.9599 43.5931C95.7906 43.9147 95.4748 44.1391 95.2072 44.093C95.0789 44.0674 95.0002 43.9867 94.9698 43.9243C94.9394 43.86 94.9484 43.8197 94.9554 43.8194Z" fill="#EB996E"/>
<path d="M96.2542 42.2254C96.0305 42.0526 95.4929 42.0898 95.2811 42.277C95.0689 42.4638 94.9262 42.7195 94.7147 42.9067C94.5029 43.0939 94.1669 43.1986 93.9422 43.027C93.7873 42.9086 93.7361 42.6907 93.7675 42.4984C93.7989 42.3058 93.8987 42.1323 94.0001 41.9656C94.4408 41.2408 94.9432 40.5515 95.3201 39.7918C95.6971 39.0322 95.9467 38.179 95.8353 37.3384C95.724 36.4974 95.195 35.6792 94.3953 35.396C93.8657 35.2085 93.2776 35.2651 92.7381 35.109C92.0984 34.924 91.5569 34.4264 91.3182 33.8046C91.2875 33.725 91.1067 33.4408 91.1067 33.4408C91.1246 33.4011 91.316 33.0744 91.5073 33.0098C92.9317 32.5288 94.8635 33.0811 96.0443 34.0117C97.2251 34.9422 98.052 36.4398 98.0664 37.9429C98.0801 39.4462 97.1342 41.1045 96.2542 42.2254Z" fill="#263238"/>
<path d="M96.2711 42.0628C96.7213 41.2971 97.4522 40.7415 98.0103 40.0503C98.5681 39.3588 98.9514 38.3844 98.5543 37.5899C98.4186 37.3182 98.2013 37.0907 98.0881 36.8091C97.9741 36.5259 97.9738 36.2123 97.93 35.9102C97.7946 34.9767 97.2045 34.1198 96.3805 33.6606C95.8109 33.3428 95.1533 33.2126 94.5761 32.9092C93.6618 32.4286 92.993 31.5377 92.0324 31.1579C91.7137 31.0318 91.3405 30.9707 91.0356 31.1278C90.7309 31.2849 90.5674 31.7268 90.7895 31.9883C90.7501 31.6817 90.3527 31.5134 90.0708 31.6407C89.7892 31.7681 89.6448 32.1035 89.664 32.4119C89.6832 32.7204 89.8362 33.0049 90.0132 33.2583C90.5965 34.0939 91.4887 34.7083 92.4772 34.9553L94.6861 34.7831L96.497 36.1252L97.8375 38.2583L95.4071 41.4158L96.2711 42.0628Z" fill="#263238"/>
<path d="M82.4492 29.4713C82.1715 25.1718 78.4607 21.9116 74.1612 22.1894C69.8617 22.4671 66.6015 26.1778 66.8793 30.4774C67.0806 33.5903 69.0815 36.157 71.8022 37.2319C71.8617 38.1545 71.9289 39.1958 71.9289 39.1958L78.7523 38.7548C78.7523 38.7548 78.7222 37.6498 78.6739 36.6649C81.0975 35.2102 82.6441 32.4866 82.4492 29.4713Z" fill="#77A8AF"/>
<path d="M76.2828 38.8824C76.2828 38.8824 76.2815 38.8494 76.2844 38.7857C76.2876 38.7182 76.2921 38.6241 76.2982 38.5028C76.3123 38.2542 76.3327 37.8878 76.3711 37.4164C76.4102 36.9451 76.4652 36.3684 76.5715 35.7041C76.6809 35.0414 76.8396 34.2868 77.1379 33.492C77.2873 33.0948 77.4636 32.6865 77.703 32.2856C77.8265 32.0891 77.9846 31.8948 78.2044 31.7732C78.4239 31.6504 78.7071 31.6318 78.9452 31.7496C79.063 31.8078 79.1663 31.9121 79.2115 32.0417C79.2611 32.1688 79.2575 32.3176 79.2047 32.4433C79.1004 32.6974 78.8819 32.8836 78.6367 33.0004C78.1343 33.2136 77.5388 33.2065 77.0108 32.9905C76.4812 32.7748 76.0399 32.322 75.8278 31.7627C75.7254 31.4846 75.6595 31.1768 75.7238 30.8676C75.7775 30.5611 76.0537 30.2718 76.3961 30.2811C76.5657 30.2827 76.726 30.388 76.8102 30.53C76.8975 30.6712 76.9286 30.8427 76.9036 31.0059C76.8495 31.3355 76.631 31.5937 76.4063 31.8148C75.942 32.252 75.2883 32.5204 74.6259 32.4587C73.9679 32.3966 73.3551 32.004 73.0479 31.4337C72.8883 31.154 72.8316 30.8056 72.9343 30.4942C72.9862 30.3406 73.0959 30.1931 73.2534 30.1278C73.4079 30.0564 73.5894 30.0737 73.7356 30.1409C73.8835 30.2072 74.0076 30.324 74.0863 30.4612C74.1676 30.5979 74.2111 30.7508 74.2342 30.9019C74.2758 31.2056 74.2521 31.5115 74.1734 31.7992C74.0201 32.3758 73.6476 32.8782 73.1603 33.1755C72.6751 33.476 72.0963 33.5848 71.5638 33.5009C71.3007 33.4603 71.0287 33.3739 70.839 33.1745C70.6534 32.98 70.5839 32.6574 70.7475 32.4273C70.8291 32.3166 70.958 32.252 71.0863 32.2337C71.2153 32.2161 71.3455 32.234 71.4623 32.282C71.7007 32.3812 71.8559 32.5864 71.9734 32.7854C72.1964 33.195 72.3798 33.595 72.5641 33.9764C73.2879 35.5054 73.8134 36.7697 74.167 37.6462C74.3436 38.0846 74.4755 38.4273 74.5641 38.66C74.6063 38.7739 74.639 38.8619 74.6627 38.9252C74.6844 38.9854 74.6931 39.0168 74.6931 39.0168C74.6931 39.0168 74.678 38.9876 74.6534 38.9288C74.6278 38.866 74.5919 38.779 74.5462 38.6667C74.4502 38.4328 74.311 38.0942 74.1324 37.66C73.7683 36.788 73.2339 35.5284 72.503 34.0052C72.318 33.627 72.1295 33.2222 71.9097 32.8225C71.7958 32.6296 71.6454 32.4388 71.4335 32.3528C71.2281 32.2676 70.9491 32.2862 70.8115 32.4737C70.6764 32.66 70.7331 32.9476 70.8985 33.1176C71.0678 33.2955 71.3225 33.379 71.5769 33.4171C72.0895 33.4961 72.6483 33.3899 73.1139 33.0996C73.5811 32.8132 73.9382 32.3297 74.0851 31.7745C74.1606 31.498 74.1823 31.2027 74.1423 30.9147C74.1033 30.6315 73.9647 30.3416 73.6972 30.2251C73.5689 30.1668 73.4182 30.1537 73.2915 30.2129C73.1622 30.2667 73.0707 30.3873 73.0239 30.524C72.9327 30.8033 72.9807 31.1243 73.1321 31.3873C73.422 31.9265 74.0092 32.3038 74.6348 32.362C75.2652 32.4216 75.8947 32.1646 76.3411 31.7444C76.5587 31.532 76.7641 31.282 76.8102 30.9908C76.8323 30.8488 76.8044 30.699 76.7302 30.5787C76.6575 30.458 76.5308 30.3758 76.3929 30.3739C76.2553 30.3691 76.1167 30.4296 76.014 30.524C75.9094 30.6171 75.8447 30.7483 75.8147 30.8868C75.7551 31.1665 75.8153 31.4632 75.9135 31.7294C76.1158 32.2657 76.5388 32.7012 77.0451 32.9083C77.5487 33.1176 78.1283 33.1233 78.6015 32.9233C78.8313 32.8158 79.0367 32.6376 79.1286 32.4129C79.2271 32.1896 79.1222 31.9185 78.9091 31.8196C78.7004 31.7147 78.439 31.7288 78.2415 31.8398C78.0383 31.9512 77.8867 32.1336 77.7657 32.3246C77.5302 32.715 77.3513 33.123 77.2015 33.5153C76.9014 34.3028 76.7385 35.0526 76.6246 35.7124C76.5135 36.3736 76.4534 36.9489 76.4086 37.419C76.3692 37.8868 76.3388 38.2516 76.3177 38.5035C76.3078 38.6244 76.3001 38.7182 76.2947 38.7857C76.2883 38.85 76.2828 38.8824 76.2828 38.8824Z" fill="#263238"/>
<path d="M78.3076 40.0519L72.4493 40.4305C72.2064 40.4462 71.9968 40.2622 71.9812 40.0193C71.9655 39.7764 72.1495 39.5668 72.3924 39.5511L78.2506 39.1726C78.4935 39.1569 78.7031 39.3409 78.7188 39.5838C78.7344 39.8266 78.5504 40.0362 78.3076 40.0519Z" fill="#263238"/>
<path d="M78.3331 40.4362L72.4749 40.8148C72.232 40.8305 72.048 41.0401 72.0637 41.283C72.0794 41.5258 72.289 41.7098 72.5318 41.6942L73.1747 41.6526L74.1328 43.2212C74.2426 43.4007 74.4426 43.5044 74.6522 43.491L76.7456 43.3556C76.9574 43.3418 77.144 43.2106 77.2285 43.0158L77.953 41.3438L78.3901 41.3156C78.633 41.2999 78.817 41.0903 78.8013 40.8474C78.7853 40.6046 78.576 40.4206 78.3331 40.4362Z" fill="#263238"/>
<g opacity="0.2">
<path d="M69.3425 25.3371C69.8347 24.82 70.3614 24.4453 70.8347 24.2001C71.3079 23.9537 71.7195 23.8225 72.0119 23.7739C72.3047 23.7243 72.474 23.7419 72.4923 23.803C72.5351 23.9422 71.9585 24.1899 71.1979 24.7723C70.4395 25.3432 69.5057 26.3166 68.9899 27.6405C68.4779 28.9659 68.5108 30.3147 68.6859 31.2478C68.8548 32.1912 69.1137 32.7624 68.9879 32.8363C68.9332 32.8689 68.7963 32.7678 68.6135 32.5339C68.4305 32.3006 68.2148 31.9265 68.0318 31.4254C67.8478 30.9253 67.7115 30.2936 67.6967 29.5797C67.6807 28.8673 67.7985 28.0728 68.0961 27.2939" fill="white"/>
</g>
<g opacity="0.2">
<path d="M74.3862 24.0174C73.8925 24.0446 73.4483 23.938 73.3811 23.6798C73.351 23.5518 73.4333 23.4078 73.6045 23.2884C73.7747 23.1694 74.0342 23.0782 74.3293 23.0606C74.6243 23.0433 74.8928 23.1028 75.0758 23.2007C75.2601 23.299 75.359 23.4321 75.3443 23.563" fill="white"/>
</g>
<path d="M77.1282 43.162C77.1221 43.1771 76.9704 43.1192 76.7176 43.0641C76.4655 43.0084 76.108 42.9672 75.7157 43.003C75.3237 43.0404 74.98 43.1476 74.7426 43.2491C74.5045 43.3502 74.3663 43.435 74.3576 43.4216C74.3516 43.4132 74.4776 43.307 74.7144 43.1873C74.9499 43.0673 75.3023 42.946 75.7071 42.9073C76.1119 42.8702 76.4805 42.924 76.7343 42.9979C76.989 43.0718 77.1327 43.1528 77.1282 43.162Z" fill="#455A64"/>
<path d="M77.966 41.3626C77.9676 41.3889 76.91 41.4788 75.6038 41.5633C74.2972 41.6478 73.2367 41.6948 73.2351 41.6682C73.2335 41.642 74.2908 41.5521 75.5977 41.4676C76.9039 41.3831 77.9644 41.3361 77.966 41.3626Z" fill="#455A64"/>
<path d="M77.6447 42.0819C77.6463 42.0947 77.4274 42.1324 77.0716 42.1778C76.7158 42.2233 76.2233 42.2758 75.6777 42.319C75.1321 42.3619 74.637 42.3875 74.2786 42.398C73.9202 42.4089 73.6982 42.406 73.6975 42.3929C73.6969 42.3795 73.9177 42.3583 74.2748 42.3302C74.6607 42.3007 75.1398 42.2639 75.67 42.2233C76.1996 42.1804 76.6786 42.1417 77.0642 42.1103C77.4217 42.0822 77.6431 42.0684 77.6447 42.0819Z" fill="#455A64"/>
<path d="M35.4548 81.2728L36.7268 83.3109C36.7268 83.3109 42.1544 78.3163 47.5387 79.7282C47.5387 79.7282 42.7 75.6251 35.4548 81.2728Z" fill="#77A8AF"/>
<path d="M47.5398 79.728C47.5398 79.728 51.5238 75.402 57.3654 76.3888L58.9584 76.6288L58.4496 75.7085C58.4496 75.7085 48.2899 72.2288 47.5398 79.728Z" fill="#77A8AF"/>
<path d="M39.1316 65.1401C39.1316 65.1401 31.1515 63.7673 25.9172 66.5989L34.2283 82.2469C34.2283 82.2469 41.0312 75.6895 47.5409 79.7276L39.1316 65.1401Z" fill="#F5F5F5"/>
<path d="M39.1304 65.1405C39.1313 65.1389 39.1457 65.1604 39.1729 65.2042C39.2027 65.2535 39.2421 65.3181 39.2926 65.4013C39.4001 65.5831 39.5537 65.8429 39.7525 66.1789C40.1557 66.8695 40.7409 67.8714 41.4824 69.1412C42.9691 71.705 45.0817 75.3488 47.6008 79.6928C47.6203 79.7264 47.6088 79.7696 47.5752 79.7888C47.5521 79.8023 47.524 79.8007 47.5025 79.7876C46.5998 79.2333 45.5627 78.8128 44.443 78.6132C43.882 78.521 43.3041 78.482 42.7182 78.4935C42.1326 78.5172 41.5409 78.5911 40.9512 78.7159C38.5941 79.2388 36.3041 80.5188 34.3502 82.2407L34.2817 82.3044C34.2501 82.3348 34.1998 82.3338 34.1694 82.3024C34.1646 82.2973 34.1595 82.2903 34.1563 82.2845C31.0689 76.4605 28.2075 71.0624 25.8577 66.6301C25.8405 66.5991 25.8517 66.56 25.8827 66.5428L25.8843 66.5418C27.7144 65.5956 29.5713 65.1853 31.2037 64.9674C32.8433 64.7559 34.2833 64.7488 35.4603 64.7824C36.6382 64.8215 37.5573 64.9162 38.1803 64.993C38.492 65.0308 38.7297 65.0672 38.8894 65.0938C38.9653 65.1072 39.0245 65.1178 39.0705 65.1261C39.1118 65.1341 39.1313 65.1389 39.1304 65.1405C39.1294 65.1418 39.1077 65.1399 39.0677 65.1354C39.0216 65.1296 38.9624 65.1226 38.8865 65.1133C38.7262 65.0935 38.4878 65.0634 38.1758 65.0317C37.5521 64.9674 36.6341 64.8852 35.4584 64.8573C34.284 64.8352 32.8485 64.8525 31.2177 65.0724C29.5947 65.298 27.7518 65.7156 25.947 66.6567L25.9736 66.5687C28.3301 70.9972 31.2005 76.3908 34.2971 82.21L34.1717 82.1901L34.2427 82.1239C35.2277 81.2416 36.3048 80.5021 37.4245 79.8916C38.5464 79.2864 39.7224 78.8234 40.9185 78.5655C41.5169 78.4397 42.1179 78.3655 42.7134 78.3424C43.3092 78.3316 43.8971 78.3722 44.468 78.4672C45.6075 78.6727 46.6619 79.1034 47.5761 79.6682L47.4779 79.7632C44.9864 75.4157 42.8965 71.7693 41.4261 69.2032C40.6971 67.9223 40.1217 66.9111 39.7253 66.2141C39.5323 65.8711 39.3832 65.6055 39.2789 65.4196C39.2312 65.3325 39.1941 65.2647 39.1659 65.2132C39.1413 65.1664 39.1291 65.1421 39.1304 65.1405Z" fill="#263238"/>
<path d="M51.6761 61.9289C51.6761 61.9289 45.6397 58.0816 39.2349 65.1398L47.6441 79.727C47.6441 79.727 49.3603 73.8064 59.3997 75.8656L51.6761 61.9289Z" fill="#F5F5F5"/>
<path d="M51.6751 61.9295C51.6764 61.9282 51.6898 61.9487 51.7151 61.9906C51.743 62.038 51.7791 62.0998 51.8258 62.1794C51.925 62.3535 52.0665 62.6015 52.2492 62.9222C52.6201 63.582 53.1577 64.5385 53.839 65.7506C55.2034 68.1983 57.1436 71.678 59.4598 75.8322C59.4786 75.8658 59.4665 75.9084 59.4329 75.9273C59.4185 75.9353 59.4025 75.9378 59.3874 75.9353L59.3846 75.9346C58.8956 75.8543 58.3974 75.7724 57.8898 75.6889C57.637 75.638 57.3782 75.6239 57.1177 75.6031C56.8572 75.5823 56.5945 75.5615 56.3298 75.5404C56.0652 75.5094 55.7977 75.5158 55.5282 75.5209C55.2588 75.5244 54.9874 75.5276 54.7138 75.5311C54.4406 75.5375 54.1686 75.5868 53.893 75.6124C53.6185 75.6473 53.3385 75.662 53.0678 75.7369C52.7945 75.7986 52.5196 75.8607 52.2428 75.9234C51.9753 76.0169 51.7065 76.111 51.4361 76.2057C51.1654 76.2994 50.9164 76.4486 50.653 76.5679C50.5196 76.6255 50.3974 76.7033 50.2764 76.7839L49.9084 77.0198C49.6658 77.1817 49.4486 77.381 49.2194 77.5654C49.0178 77.7794 48.7906 77.9727 48.6143 78.213C48.237 78.6674 47.9148 79.1913 47.7196 79.749L47.718 79.7532C47.7036 79.7945 47.6582 79.8162 47.6169 79.8018C47.5983 79.7954 47.5836 79.7823 47.5743 79.7666C47.4671 79.581 47.3513 79.3801 47.2354 79.1785C44.262 74.0114 41.4914 69.1964 39.1762 65.173C39.1612 65.1474 39.1657 65.1154 39.1846 65.0946C40.6066 63.5439 42.1759 62.3606 43.7401 61.6697C45.3007 60.9615 46.8233 60.7852 48.037 60.8633C49.2588 60.9388 50.1846 61.2364 50.7858 61.4793C51.0882 61.6012 51.3103 61.7157 51.4582 61.7954C51.527 61.8357 51.581 61.8671 51.623 61.8914C51.6591 61.9161 51.6764 61.9282 51.6751 61.9295C51.6738 61.9308 51.654 61.9209 51.6172 61.901C51.5743 61.8789 51.5193 61.8508 51.4486 61.8146C51.2982 61.741 51.0738 61.6332 50.7708 61.518C50.1676 61.2882 49.2444 61.0053 48.0326 60.9417C46.8284 60.8757 45.3244 61.0607 43.7839 61.7702C42.2399 62.4623 40.6902 63.6409 39.2831 65.1855L39.2914 65.1071C41.613 69.127 44.391 73.9375 47.3724 79.1001C47.4886 79.3014 47.6044 79.5023 47.7113 79.6882L47.5663 79.7058C47.7753 79.1087 48.103 78.5836 48.4911 78.1138C48.6726 77.8674 48.9046 77.6694 49.1119 77.4502C49.3462 77.2614 49.5695 77.0575 49.8175 76.8921L50.1938 76.6514C50.318 76.5692 50.4431 76.4902 50.5788 76.4313C50.8473 76.3094 51.102 76.1577 51.3778 76.0626C51.6534 75.9666 51.9273 75.8713 52.1996 75.7766C52.4806 75.7132 52.7599 75.6505 53.0374 75.5881C53.3129 75.5122 53.5961 75.4978 53.8742 75.463C54.1532 75.437 54.429 75.3881 54.7052 75.382C54.9814 75.3791 55.2556 75.3759 55.5279 75.373C55.8002 75.3682 56.0703 75.3625 56.3369 75.3941C56.6038 75.4159 56.8684 75.4377 57.1311 75.4591C57.3935 75.4806 57.655 75.4959 57.9087 75.5474C58.4191 75.6326 58.9206 75.7164 59.4121 75.7986L59.3369 75.901C57.045 71.7404 55.125 68.2553 53.7746 65.8037C53.1068 64.5817 52.5801 63.6172 52.2166 62.9522C52.0409 62.6258 51.9046 62.3727 51.8092 62.1954C51.766 62.1129 51.7324 62.0486 51.7065 61.9993C51.6847 61.9542 51.6738 61.9308 51.6751 61.9295Z" fill="#263238"/>
<path d="M28.1648 59.0774L37.1645 76.4057C37.1645 76.4057 44.4787 76.0857 47.5744 79.6502L39.2339 65.1401C39.2339 65.1401 34.343 59.0774 28.1648 59.0774Z" fill="#F5F5F5"/>
<path d="M28.1645 59.0772C28.1645 59.0772 28.2387 59.0785 28.3927 59.0845C28.5562 59.0913 28.7875 59.1005 29.0864 59.113C29.1629 59.1175 29.2451 59.1185 29.3296 59.1274C29.4131 59.1412 29.5008 59.1556 29.5923 59.1706C29.7767 59.2013 29.9773 59.2346 30.1939 59.2708C30.4135 59.297 30.6391 59.3706 30.8832 59.4352C31.1248 59.5088 31.3911 59.5585 31.6551 59.6637C33.8058 60.3796 36.6903 62.1143 39.2839 65.0993L39.2887 65.1057L39.2896 65.1076C41.6643 69.2305 44.5389 74.2218 47.6426 79.6103C47.6643 79.6484 47.6515 79.6967 47.6134 79.7188C47.5818 79.737 47.5427 79.7309 47.5181 79.7063L47.5139 79.7021C47.4026 79.5914 47.2819 79.4714 47.161 79.3511C46.4915 78.7021 45.6992 78.1901 44.8573 77.8285C44.0199 77.4586 43.1549 77.1725 42.2829 76.985C40.5434 76.5943 38.8074 76.4471 37.1674 76.4797H37.1655C37.1363 76.4804 37.1107 76.4641 37.0983 76.4397C34.4746 71.3521 32.2333 67.0058 30.6445 63.9245C29.8608 62.3978 29.2381 61.1847 28.808 60.3466C28.5991 59.9377 28.4371 59.6202 28.3242 59.3991C28.2723 59.2964 28.2323 59.2167 28.2023 59.1569C28.1754 59.1031 28.1626 59.0762 28.1645 59.0772C28.1664 59.0781 28.1827 59.1076 28.2131 59.1636C28.2461 59.225 28.2896 59.3066 28.3459 59.4119C28.464 59.6356 28.6333 59.9559 28.8512 60.3693C29.2919 61.2077 29.9296 62.4215 30.7325 63.9495C32.3322 67.0077 34.5888 71.3217 37.2304 76.3713L37.1613 76.3313C38.8202 76.2951 40.5607 76.4404 42.3181 76.8327C43.1981 77.0209 44.073 77.3092 44.9229 77.6842C45.7767 78.0506 46.5859 78.5716 47.2727 79.2375C47.3965 79.361 47.5203 79.4842 47.6346 79.5978L47.5056 79.6893C44.4112 74.2954 41.545 69.2993 39.1773 65.1725L39.1831 65.1809C37.9162 63.6916 36.5351 62.5252 35.2439 61.6164C33.9405 60.7207 32.7008 60.098 31.6314 59.7338C31.3696 59.6266 31.1059 59.5748 30.8666 59.4986C30.6247 59.4314 30.4007 59.3553 30.1831 59.3265C29.968 59.2874 29.7687 59.2513 29.5859 59.218C29.4947 59.2013 29.4077 59.1853 29.3248 59.1703C29.2423 59.1601 29.1639 59.1578 29.0899 59.1514C28.5402 59.1076 28.2848 59.0868 28.1645 59.0772Z" fill="#263238"/>
<path d="M56.2564 108.224L56.4497 108.545C56.6667 108.905 56.9822 109.196 57.3592 109.382L57.6952 109.548L57.3739 109.741C57.0136 109.958 56.7227 110.274 56.5364 110.651L56.3704 110.987L56.1771 110.666C55.9601 110.306 55.6446 110.015 55.2676 109.828L54.9316 109.662L55.2526 109.469C55.6129 109.252 55.9038 108.937 56.09 108.56L56.2564 108.224Z" fill="white" fill-opacity="0.16"/>
<path d="M38.5138 42.2183L38.707 42.5392C38.924 42.8995 39.2395 43.1904 39.6165 43.3767L39.9525 43.5427L39.6315 43.736C39.2712 43.953 38.9803 44.2685 38.7938 44.6455L38.6277 44.9815L38.4344 44.6605C38.2174 44.3002 37.9019 44.0093 37.525 43.8231L37.189 43.657L37.5102 43.4637C37.8706 43.2467 38.1614 42.9312 38.3477 42.5543L38.5138 42.2183Z" fill="white" fill-opacity="0.16"/>
<path d="M120.621 53.6074L120.814 53.9287C121.031 54.289 121.347 54.5799 121.724 54.7661L122.06 54.9322L121.739 55.1255C121.379 55.3425 121.088 55.658 120.901 56.0349L120.735 56.3709L120.542 56.05C120.325 55.6897 120.009 55.3988 119.632 55.2125L119.296 55.0465L119.617 54.8532C119.978 54.6362 120.269 54.3207 120.455 53.9437L120.621 53.6074Z" fill="white" fill-opacity="0.16"/>
<path d="M110.927 112.37L111.12 112.691C111.337 113.051 111.653 113.342 112.029 113.529L112.365 113.695L112.045 113.888C111.684 114.105 111.393 114.42 111.207 114.797L111.041 115.133L110.848 114.812C110.631 114.452 110.315 114.161 109.938 113.975L109.602 113.809L109.924 113.615C110.284 113.398 110.575 113.083 110.761 112.706L110.927 112.37Z" fill="white" fill-opacity="0.16"/>
<path d="M112.771 124.718L112.863 124.755C112.967 124.797 113.081 124.808 113.191 124.787L113.289 124.769L113.251 124.861C113.21 124.965 113.199 125.079 113.219 125.189L113.238 125.287L113.145 125.249C113.042 125.208 112.928 125.197 112.818 125.217L112.72 125.236L112.757 125.144C112.799 125.04 112.81 124.926 112.789 124.816L112.771 124.718Z" fill="white" fill-opacity="0.16"/>
<path d="M118.356 41.22L118.448 41.2571C118.552 41.299 118.666 41.3099 118.776 41.2891L118.874 41.2705L118.837 41.363C118.795 41.4667 118.784 41.5806 118.805 41.6904L118.823 41.7883L118.731 41.7512C118.627 41.7092 118.513 41.6984 118.403 41.7192L118.305 41.7377L118.343 41.6452C118.384 41.5412 118.395 41.428 118.375 41.3179L118.356 41.22Z" fill="white" fill-opacity="0.16"/>
<path d="M42.1238 33.5964L42.2163 33.6336C42.32 33.6752 42.4336 33.6864 42.5436 33.6656L42.6416 33.647L42.6044 33.7395C42.5628 33.8432 42.5516 33.9571 42.5724 34.0668L42.591 34.1648L42.4985 34.1276C42.3945 34.0857 42.2809 34.0748 42.1712 34.0956L42.0732 34.1142L42.1104 34.0217C42.1523 33.918 42.1632 33.8044 42.1424 33.6944L42.1238 33.5964Z" fill="white" fill-opacity="0.16"/>
<path d="M51.531 98.6111L51.6235 98.6482C51.7272 98.6898 51.8411 98.701 51.9509 98.6802L52.0488 98.6617L52.0117 98.7541C51.9697 98.8578 51.9589 98.9717 51.9797 99.0815L51.9982 99.1794L51.9057 99.1423C51.8021 99.1004 51.6881 99.0895 51.5784 99.1103L51.4805 99.1288L51.5176 99.0364C51.5592 98.9327 51.5704 98.8191 51.5496 98.709L51.531 98.6111Z" fill="white" fill-opacity="0.16"/>
<path d="M61.7305 123.741C61.7305 123.741 61.7027 123.774 61.6432 123.834C61.5789 123.898 61.4909 123.986 61.3773 124.098C61.1363 124.333 60.7891 124.671 60.3433 125.105C59.4355 125.981 58.1277 127.242 56.5075 128.805L56.5225 128.768C56.7049 132.783 56.9526 138.24 57.2285 144.309L57.2349 144.447L57.1203 144.37C56.6803 144.076 56.2096 143.761 55.7353 143.444C52.5757 141.329 49.5849 139.327 46.9529 137.565L46.935 137.553L46.9283 137.533C45.6179 133.619 44.5126 130.319 43.7325 127.989C43.3494 126.831 43.0461 125.914 42.8365 125.281C42.7363 124.971 42.6585 124.731 42.6041 124.562C42.5801 124.484 42.5613 124.424 42.5469 124.376C42.5344 124.335 42.5289 124.313 42.5305 124.312C42.5321 124.312 42.5408 124.332 42.5565 124.373C42.5734 124.419 42.5952 124.479 42.6233 124.555C42.6822 124.723 42.7661 124.961 42.8742 125.268C43.0915 125.899 43.4061 126.812 43.8035 127.965C44.5952 130.291 45.7171 133.586 47.047 137.493L47.0224 137.461C49.6566 139.219 52.6502 141.218 55.8125 143.329C56.2867 143.646 56.7574 143.961 57.1974 144.255L57.0893 144.316C56.8294 138.246 56.5955 132.788 56.4237 128.772L56.4227 128.75L56.439 128.734C58.0723 127.185 59.3904 125.935 60.3056 125.067C60.759 124.641 61.1126 124.309 61.3577 124.079C61.4755 123.97 61.5667 123.886 61.6333 123.824C61.696 123.767 61.7305 123.741 61.7305 123.741Z" fill="white" fill-opacity="0.16"/>
<path d="M57.6418 142.482L57.6139 143.388L58.3445 143.925L57.4741 144.178L57.1893 145.039L56.6795 144.289L55.7729 144.284L56.3281 143.568L56.0526 142.704L56.9058 143.011L57.6418 142.482Z" fill="white" fill-opacity="0.16"/>
<path d="M47.0636 136.334L47.0812 136.92L47.5743 137.238L47.022 137.436L46.8719 138.003L46.5128 137.539L45.9272 137.572L46.2575 137.087L46.0456 136.54L46.6088 136.704L47.0636 136.334Z" fill="white" fill-opacity="0.16"/>
<path d="M42.5046 123.236L42.9471 123.804L43.6658 123.762L43.2623 124.358L43.5247 125.028L42.8329 124.829L42.2764 125.286L42.2524 124.566L41.646 124.178L42.3228 123.932L42.5046 123.236Z" fill="white" fill-opacity="0.16"/>
<path d="M61.2891 122.668L61.7313 123.236L62.45 123.194L62.0465 123.79L62.3089 124.461L61.6171 124.261L61.0606 124.718L61.0366 123.998L60.4302 123.61L61.107 123.365L61.2891 122.668Z" fill="white" fill-opacity="0.16"/>
<path d="M56.3572 128.155L56.6397 128.518L57.0983 128.49L56.8407 128.871L57.0084 129.299L56.5668 129.172L56.2116 129.463L56.1962 129.004L55.8093 128.756L56.2413 128.6L56.3572 128.155Z" fill="white" fill-opacity="0.16"/>
<path d="M39.421 103.954C42.9459 103.954 45.8034 101.097 45.8034 97.5716C45.8034 94.0467 42.9459 91.1892 39.421 91.1892C35.8961 91.1892 33.0386 94.0467 33.0386 97.5716C33.0386 101.097 35.8961 103.954 39.421 103.954Z" fill="#77A8AF"/>
<g opacity="0.3">
<path d="M38.5912 99.5639C38.5912 100.139 38.1253 100.605 37.5502 100.605C36.9752 100.605 36.5093 100.139 36.5093 99.5639C36.5093 98.9892 36.9752 98.5229 37.5502 98.5229C38.1253 98.5229 38.5912 98.9889 38.5912 99.5639Z" fill="white"/>
</g>
<g opacity="0.3">
<path d="M37.1159 96.5593C37.1159 96.8937 36.8449 97.1647 36.5105 97.1647C36.1761 97.1647 35.905 96.8937 35.905 96.5593C35.905 96.2249 36.1761 95.9539 36.5105 95.9539C36.8449 95.9539 37.1159 96.2249 37.1159 96.5593Z" fill="white"/>
</g>
<path d="M33.2295 99.1238C33.2579 99.2345 27.7671 104.503 29.1824 105.626C30.5978 106.748 36.552 103.868 41.6275 99.7689C46.7031 95.6694 51.3395 90.6912 50.0707 89.3734C48.8019 88.0556 42.4586 91.9571 42.4586 91.9571L43.2167 92.4403C43.2167 92.4403 47.0519 89.9798 48.265 90.9347C49.4781 91.8899 46.0199 95.6198 41.1395 99.1827C36.2592 102.746 31.5434 105.246 30.8115 104.27C30.0794 103.294 33.5338 100.038 33.5338 100.038L33.2295 99.1238Z" fill="#77A8AF"/>
<g opacity="0.3">
<path d="M33.2295 99.1238C33.2579 99.2345 27.7671 104.503 29.1824 105.626C30.5978 106.748 36.552 103.868 41.6275 99.7689C46.7031 95.6694 51.3395 90.6912 50.0707 89.3734C48.8019 88.0556 42.4586 91.9571 42.4586 91.9571L43.2167 92.4403C43.2167 92.4403 47.0519 89.9798 48.265 90.9347C49.4781 91.8899 46.0199 95.6198 41.1395 99.1827C36.2592 102.746 31.5434 105.246 30.8115 104.27C30.0794 103.294 33.5338 100.038 33.5338 100.038L33.2295 99.1238Z" fill="black"/>
</g>
<g opacity="0.3">
<path d="M35.9054 93.0761C35.9569 93.1376 35.5242 93.5049 35.0346 94.2419C34.5447 94.9676 34.0324 96.1168 34.0042 97.4496C33.9793 98.783 34.4455 99.952 34.906 100.697C35.3658 101.452 35.7834 101.836 35.7294 101.896C35.697 101.94 35.1841 101.644 34.6164 100.892C34.3338 100.518 34.0522 100.027 33.8414 99.4393C33.6298 98.8528 33.4993 98.1657 33.5102 97.4397C33.5284 96.7142 33.6862 96.0333 33.9207 95.4553C34.155 94.8761 34.4558 94.3971 34.753 94.0348C35.3502 93.3062 35.8746 93.0304 35.9054 93.0761Z" fill="white"/>
</g>
<path d="M113.392 41.5892C115.491 39.5774 115.562 36.2448 113.55 34.1455C111.539 32.0462 108.206 31.9753 106.107 33.987C104.007 35.9988 103.937 39.3314 105.948 41.4307C107.96 43.53 111.293 43.6009 113.392 41.5892Z" fill="#77A8AF"/>
<g opacity="0.4">
<path d="M111.464 35.7758C111.476 35.3016 111.869 34.9265 112.343 34.9377C112.817 34.9489 113.192 35.3425 113.181 35.8165C113.17 36.2904 112.776 36.6657 112.302 36.6545C111.828 36.6433 111.453 36.2497 111.464 35.7758Z" fill="black"/>
</g>
<g opacity="0.4">
<path d="M113.182 37.7803C113.188 37.5045 113.418 37.2862 113.693 37.2926C113.969 37.299 114.187 37.5281 114.181 37.804C114.174 38.0798 113.945 38.2981 113.67 38.2913C113.394 38.2849 113.176 38.0561 113.182 37.7803Z" fill="black"/>
</g>
<g opacity="0.4">
<path d="M112.512 39.314C112.614 39.3166 112.694 39.4007 112.692 39.5025C112.689 39.6042 112.605 39.6846 112.503 39.6823C112.401 39.6798 112.321 39.5956 112.323 39.4938C112.326 39.3921 112.41 39.3118 112.512 39.314Z" fill="black"/>
</g>
</svg>
