<svg width="103" height="134" viewBox="0 0 103 134" fill="none" xmlns="http://www.w3.org/2000/svg">
<g opacity="0.1">
<path d="M109.865 6.81478C96.7236 -0.866194 81.0738 -1.90538 66.6954 2.9467C61.7903 4.60206 57.11 6.93424 52.8639 9.89893C48.4654 12.97 45.1655 17.1609 41.2572 20.7839C37.3041 24.4483 33.2113 28.0142 28.5654 30.7836C22.0141 34.6891 14.3847 37.0238 8.91967 42.3439C2.90604 48.1981 0.431892 56.8845 0.0546334 65.2688C-0.26344 72.3372 0.777925 79.5767 3.95358 85.8993C7.27447 92.5106 12.7732 97.8271 18.8784 102.006C26.7913 107.423 35.8757 111.119 45.3224 112.766C64.084 116.038 83.6369 111.121 100.3 101.898C110.177 96.4324 119.321 89.3734 126.08 80.3319C132.838 71.2904 137.092 60.152 136.784 48.8677C136.309 31.4931 124.871 15.5861 109.865 6.81478Z" fill="#ECDEFF"/>
<path d="M40.0962 17.2217C41.3231 15.5014 42.4622 13.6209 42.7149 11.5229C42.9672 9.42458 42.115 7.06481 40.2222 6.12475C38.3374 5.18832 35.9525 5.92323 34.4297 7.37598C32.9065 8.82874 32.0805 10.8548 31.4265 12.8551C30.1698 16.6992 29.2421 20.941 26.2408 23.6522C25.5472 24.2789 24.7517 24.8116 24.2031 25.5683C22.9068 27.3562 24.2205 29.225 26.2571 29.4375C28.0345 29.623 29.5475 27.9411 30.8154 26.9281C34.3346 24.1163 37.4775 20.8938 40.0962 17.2217Z" fill="#ECDEFF"/>
<path d="M101.865 17.5777C102.394 17.5814 102.94 17.5821 103.427 17.3751C104.273 17.0156 104.757 16.1014 104.938 15.2009C105.135 14.2249 105.037 13.1592 104.502 12.3201C103.966 11.4809 102.946 10.9236 101.965 11.0939C100.984 11.2642 100.173 12.2627 100.355 13.2416C99.9801 12.5005 98.7212 12.4856 98.329 13.2173C98.2089 12.0441 96.6624 11.3829 95.6171 11.9279C94.5713 12.4733 94.1592 13.864 94.5024 14.9921C93.7188 14.4224 92.4098 14.9801 92.278 15.9398C91.9523 15.6413 91.6822 15.2615 91.2788 15.0818C90.8754 14.9021 90.2744 15.0622 90.2189 15.5001C89.7875 15.1025 89.1332 14.9645 88.5781 15.1548C88.0229 15.3447 87.5904 15.8548 87.4935 16.4336C87.2622 17.813 88.3203 17.6119 89.155 17.4953C90.5061 17.3068 92.0249 17.5069 93.3902 17.5167C96.2147 17.5374 99.04 17.5574 101.865 17.5777Z" fill="white"/>
<path d="M14.4037 36.9452C14.9328 36.9488 15.4792 36.9495 15.9658 36.7425C16.8114 36.3831 17.2958 35.4688 17.477 34.5683C17.6734 33.5923 17.5761 32.5266 17.0405 31.6875C16.505 30.8484 15.4847 30.291 14.5039 30.4613C13.5232 30.6316 12.712 31.6301 12.8936 32.609C12.5189 31.868 11.26 31.8531 10.8679 32.5847C10.7477 31.4115 9.20125 30.7503 8.1559 31.2954C7.11017 31.8407 6.69806 33.2314 7.04118 34.3595C6.25762 33.7898 4.94865 34.3476 4.81685 35.3072C4.49115 35.0088 4.221 34.6289 3.8176 34.4492C3.4142 34.2695 2.81327 34.4296 2.75772 34.8675C2.32636 34.4699 1.67206 34.3319 1.11688 34.5222C0.561703 34.7121 0.129253 35.2223 0.0323064 35.801C-0.198987 37.1804 0.859082 36.9793 1.69348 36.8627C3.04457 36.6743 4.5634 36.8743 5.92865 36.8842C8.75355 36.9048 11.5785 36.9248 14.4037 36.9452Z" fill="#ECDEFF"/>
<path d="M14.834 54.2515C14.2352 54.2558 13.6173 54.2562 13.0664 54.022C12.1097 53.6153 11.5614 52.5809 11.3562 51.5616C11.134 50.4575 11.244 49.2512 11.8501 48.3017C12.4561 47.3522 13.6107 46.7215 14.7207 46.914C15.8307 47.1064 16.7482 48.2368 16.5427 49.3446C16.9668 48.5058 18.3913 48.4891 18.835 49.3173C18.9711 47.9898 20.7209 47.2415 21.9039 47.8584C23.0872 48.4753 23.5534 50.0493 23.1653 51.326C24.052 50.6815 25.533 51.3126 25.6823 52.3986C26.0505 52.0609 26.3565 51.6314 26.813 51.4277C27.2694 51.224 27.9495 51.4055 28.0123 51.9011C28.5003 51.4509 29.2406 51.2951 29.8688 51.5101C30.4969 51.725 30.9864 52.302 31.0961 52.957C31.3575 54.518 30.1604 54.2903 29.2163 54.1585C27.6877 53.945 25.9688 54.1716 24.4241 54.1828C21.2274 54.2057 18.0307 54.2286 14.834 54.2515Z" fill="white"/>
</g>
<path d="M49.457 85.1398C37.0492 85.1398 30.9372 73.8805 30.6834 73.4012C30.1068 72.3134 30.5211 70.9641 31.6086 70.3878C32.6957 69.812 34.0417 70.2241 34.6198 71.3087C34.834 71.707 39.7765 80.682 49.457 80.682C50.6879 80.682 51.6861 81.6798 51.6861 82.9111C51.6861 84.1416 50.6879 85.1398 49.457 85.1398Z" fill="#DDA38C"/>
<path d="M57.4485 114.536C57.4485 114.536 57.9438 119.233 66.9442 119.233C75.9443 119.233 77.119 114.536 77.119 114.536H57.4485Z" stroke="#244E80" stroke-width="0.343641" stroke-miterlimit="10"/>
<path d="M75.6773 116.15H58.2134C56.2342 116.15 54.6147 114.531 54.6147 112.552V103.896C54.6147 101.916 56.2342 100.297 58.2134 100.297H75.6773C77.6566 100.297 79.276 101.916 79.276 103.896V112.552C79.276 114.531 77.6566 116.15 75.6773 116.15Z" fill="white" stroke="#244E80" stroke-width="0.343641" stroke-miterlimit="10"/>
<path d="M78.5044 101.681L54.6147 105.617V106.854L79.1097 102.819C78.9775 102.402 78.7695 102.018 78.5044 101.681Z" fill="#DEEEFC"/>
<path d="M79.276 104.229L54.6147 108.292V109.529L79.276 105.466V104.229Z" fill="#DEEEFC"/>
<path d="M54.6147 112.202L79.276 108.139V106.902L54.6147 110.965V112.202Z" fill="#DEEEFC"/>
<path d="M55.3754 114.752L79.277 110.814V109.577L54.7766 113.614C54.9062 114.031 55.1128 114.414 55.3754 114.752Z" fill="#DEEEFC"/>
<path d="M58.2119 116.151H63.1086L79.1401 113.51C79.2251 113.204 79.2741 112.884 79.2741 112.552V112.251L56.9719 115.925C57.3597 116.069 57.7762 116.151 58.2119 116.151Z" fill="#DEEEFC"/>
<path d="M78.5044 101.681L54.6147 105.617V106.854L79.1097 102.819C78.9775 102.402 78.7695 102.018 78.5044 101.681Z" stroke="#244E80" stroke-width="0.343641" stroke-miterlimit="10"/>
<path d="M79.276 104.229L54.6147 108.292V109.529L79.276 105.466V104.229Z" stroke="#244E80" stroke-width="0.343641" stroke-miterlimit="10"/>
<path d="M54.6147 112.202L79.276 108.139V106.902L54.6147 110.965V112.202Z" stroke="#244E80" stroke-width="0.343641" stroke-miterlimit="10"/>
<path d="M55.3754 114.752L79.277 110.814V109.577L54.7766 113.614C54.9062 114.031 55.1128 114.414 55.3754 114.752Z" stroke="#244E80" stroke-width="0.343641" stroke-miterlimit="10"/>
<path d="M58.2119 116.151H63.1086L79.1401 113.51C79.2251 113.204 79.2741 112.884 79.2741 112.552V112.251L56.9719 115.925C57.3597 116.069 57.7762 116.151 58.2119 116.151Z" stroke="#244E80" stroke-width="0.343641" stroke-miterlimit="10"/>
<path d="M75.6773 116.15H58.2134C56.2342 116.15 54.6147 114.531 54.6147 112.552V103.896C54.6147 101.916 56.2342 100.297 58.2134 100.297H75.6773C77.6566 100.297 79.276 101.916 79.276 103.896V112.552C79.276 114.531 77.6566 116.15 75.6773 116.15Z" stroke="#244E80" stroke-width="0.343641" stroke-miterlimit="10"/>
<path d="M98.7483 52.2311C98.0453 42.312 91.9209 22.9636 68.0865 21.8016V21.7461C67.7016 21.7461 67.3218 21.7512 66.9453 21.7603C66.5691 21.7512 66.1889 21.7461 65.804 21.7461V21.8016C41.9696 22.9636 35.8452 42.3116 35.1422 52.2311C34.4175 62.4599 39.7332 70.4335 44.163 78.4072C48.5928 86.3808 50.2035 97.0526 50.8883 100.919C51.5731 104.784 55.0767 104.664 55.0767 104.664H65.8044H66.9456L68.0868 104.664L78.8146 104.664C78.8146 104.664 82.3181 104.785 83.0025 100.919C83.687 97.0526 85.298 86.3808 89.7278 78.4072C94.1576 70.4335 99.4734 62.4599 98.7483 52.2311Z" fill="#FBB040"/>
<path d="M72.9133 24.5138C72.1482 24.939 71.5854 25.5817 71.7481 26.3957C71.84 26.8561 72.1283 27.253 72.4471 27.5976C73.5462 28.786 75.0574 29.5148 76.5969 30.0155C77.1772 30.2043 77.7795 30.3658 78.3888 30.3335C78.9981 30.3012 79.6223 30.0467 79.9723 29.5467C80.3637 28.9879 80.3459 28.2348 80.1734 27.5747C79.9095 26.5642 79.2308 25.9633 78.3961 25.3823C77.4542 24.7269 76.4564 24.0505 75.3145 23.9397C74.6663 23.8769 73.6863 24.0843 72.9133 24.5138Z" fill="#FCBC68"/>
<path d="M52.0463 81.1702C44.8664 69.2958 44.2164 59.4773 44.2164 59.4773C42.6718 39.9597 51.3916 28.6299 57.9433 22.967C40.5753 27.4898 35.7606 43.5064 35.1422 52.2309C34.4175 62.4598 39.7332 70.4334 44.163 78.407C48.5928 86.3806 50.2035 97.0525 50.8883 100.918C51.5731 104.784 55.0767 104.664 55.0767 104.664H55.1355C55.5059 95.2863 54.9532 85.9776 52.0463 81.1702Z" fill="#FCBC68"/>
<path d="M47.8677 69.3499L40.5647 71.9896C41.2713 73.2931 42.0018 74.5814 42.7295 75.8631C46.4207 73.0291 47.8677 69.3499 47.8677 69.3499Z" fill="#E29A3B"/>
<path d="M118.243 44.6467H71.8108V91.079H118.243V44.6467Z" fill="white"/>
<path d="M98.7476 52.2304C98.5936 50.058 98.1797 47.4335 97.3765 44.6467H71.8108V91.079H84.9916C86.0326 86.9618 87.534 82.3537 89.7271 78.4061C94.1569 70.4328 99.4727 62.4592 98.7476 52.2304Z" fill="#DEEEFC"/>
<path d="M97.3784 44.6467C97.3784 44.6467 102.616 56.8806 93.1505 72.3137C93.1505 72.3137 89.033 79.7187 86.675 85.399" stroke="#244E80" stroke-width="0.343641" stroke-miterlimit="10" stroke-linejoin="round"/>
<path d="M100.632 55.209L88.9587 83.3611" stroke="#244E80" stroke-width="0.343641" stroke-miterlimit="10" stroke-linecap="round" stroke-linejoin="round"/>
<path d="M101.629 54.7975C101.468 55.186 101.022 55.3704 100.634 55.2092C100.245 55.048 100.061 54.6025 100.222 54.214C100.383 53.8255 100.829 53.641 101.217 53.8022C101.606 53.9634 101.79 54.4093 101.629 54.7975Z" fill="white" stroke="#244E80" stroke-width="0.343641" stroke-miterlimit="10" stroke-linecap="round" stroke-linejoin="round"/>
<path d="M89.3716 84.3558C89.2104 84.7443 88.7648 84.9288 88.3763 84.7676C87.9878 84.6064 87.8034 84.1608 87.9646 83.7723C88.1258 83.3838 88.5713 83.1994 88.9598 83.3606C89.3483 83.5218 89.5328 83.9673 89.3716 84.3558Z" fill="white" stroke="#244E80" stroke-width="0.343641" stroke-miterlimit="10" stroke-linecap="round" stroke-linejoin="round"/>
<path d="M96.0184 68.8814L94.3882 68.0352L93.5419 69.6654L95.1722 70.5117L96.0184 68.8814Z" fill="white" stroke="#244E80" stroke-width="0.343641" stroke-miterlimit="10" stroke-linejoin="round"/>
<path d="M96.5618 69.5371C96.3944 69.4746 96.2633 69.6888 96.3959 69.8094L99.2894 72.4415C99.407 72.5486 99.4158 72.7309 99.3086 72.8489C99.2015 72.9665 99.0192 72.9752 98.9012 72.8681L96.0081 70.2364C95.8759 70.1162 95.6748 70.2665 95.7528 70.4274L97.817 74.6767C97.8381 74.7199 97.8773 74.7519 97.9238 74.7631L100.669 75.4472C100.727 75.4617 100.788 75.4432 100.828 75.3989L101.372 74.8009L101.447 74.7188L101.991 74.1208C102.031 74.0765 102.044 74.0141 102.024 73.9574L101.084 71.2894C101.068 71.244 101.033 71.208 100.988 71.1913L96.5618 69.5371Z" fill="#244E80"/>
<path d="M102.492 74.2221L100.966 75.8999L101.74 76.6043L103.267 74.9265L102.492 74.2221Z" fill="#244E80"/>
<path d="M116.719 91.0791H72.8289" stroke="#244E80" stroke-width="0.343641" stroke-miterlimit="10" stroke-dasharray="0.95 0.95"/>
<path d="M72.3254 91.0791H71.8105V90.5642" stroke="#244E80" stroke-width="0.343641" stroke-miterlimit="10"/>
<path d="M71.8105 89.5558V45.666" stroke="#244E80" stroke-width="0.343641" stroke-miterlimit="10" stroke-dasharray="0.95 0.95"/>
<path d="M71.8105 45.1614V44.6465H72.3254" stroke="#244E80" stroke-width="0.343641" stroke-miterlimit="10"/>
<path d="M73.3337 44.6465H117.224" stroke="#244E80" stroke-width="0.343641" stroke-miterlimit="10" stroke-dasharray="0.95 0.95"/>
<path d="M60.8457 104.591C61.3163 97.6234 61.565 93.9397 61.9332 88.4904C62.4985 80.1184 62.8217 70.9012 57.6675 64.2797C57.353 63.876 56.9838 63.4628 56.4842 63.3538C55.4588 63.1298 54.6752 64.2521 54.3139 65.2376C53.5543 67.3094 53.2791 69.7396 54.4011 71.6397C55.3469 73.2417 57.1149 74.1789 58.8864 74.7475C63.0584 76.0866 67.7384 75.7663 71.6889 73.871" stroke="#244E80" stroke-width="0.343641" stroke-miterlimit="10" stroke-linejoin="round"/>
<path d="M82.5236 21.7458H52.0474" stroke="#244E80" stroke-width="0.343641" stroke-miterlimit="10" stroke-linecap="round" stroke-linejoin="round"/>
<path d="M83.2863 22.5072C82.8658 22.5072 82.5249 22.1663 82.5249 21.7458C82.5249 21.3253 82.8658 20.9844 83.2863 20.9844C83.7068 20.9844 84.0477 21.3253 84.0477 21.7458C84.0477 22.1663 83.7068 22.5072 83.2863 22.5072Z" fill="white" stroke="#244E80" stroke-width="0.343641" stroke-miterlimit="10" stroke-linecap="round" stroke-linejoin="round"/>
<path d="M51.2853 22.5072C50.8649 22.5072 50.5239 22.1663 50.5239 21.7458C50.5239 21.3253 50.8649 20.9844 51.2853 20.9844C51.7058 20.9844 52.0468 21.3253 52.0468 21.7458C52.0468 22.1663 51.7058 22.5072 51.2853 22.5072Z" fill="white" stroke="#244E80" stroke-width="0.343641" stroke-miterlimit="10" stroke-linecap="round" stroke-linejoin="round"/>
<path d="M43.7729 31.334C43.7729 31.334 50.8109 22.3241 65.8025 21.7449C65.8025 21.7449 80.1161 21.0184 89.8926 31.0958" stroke="#244E80" stroke-width="0.343641" stroke-miterlimit="10" stroke-linecap="round" stroke-linejoin="round"/>
<path d="M43.0669 122.032L43.5012 123.041C43.5012 123.041 47.2182 123.251 50.7003 120.102L49.2268 119.994L43.0669 122.032Z" fill="#171C27"/>
<path d="M26.8111 92.6963C26.8111 92.6963 24.6002 108.45 19.2612 119.843C19.2612 119.843 22.3646 121.683 25.3733 121.508C25.3733 121.508 31.1865 108.976 33.2899 93.4642L26.8111 92.6963Z" fill="#062538"/>
<path d="M23.8316 87.1609C23.8316 87.1609 23.6558 92.3506 25.9146 93.7852C28.1735 95.2198 40.3253 113.304 43.1102 121.983C43.1102 121.983 46.739 122.224 49.2706 119.946C49.2706 119.946 41.5068 102.155 35.0934 92.6963C35.0934 92.6963 36.6562 89.6434 36.4746 86.6609L23.8316 87.1609Z" fill="#0A3759"/>
<path d="M19.2623 119.842L18.7761 120.661C18.7761 120.661 22.0465 122.811 26.1343 122.478L25.3747 121.507C25.3747 121.507 20.5662 120.385 19.2623 119.842Z" fill="#171C27"/>
<path d="M35.6534 73.1498L36.4748 86.6599C36.4748 86.6599 33.6843 88.7223 29.3551 88.8182C25.0259 88.9137 23.8317 87.1607 23.8317 87.1607C23.8317 87.1607 22.7482 73.9432 22.8542 73.7961C22.9603 73.6491 22.8662 69.2694 29.1529 69.2948C35.4392 69.3191 35.6534 73.1498 35.6534 73.1498Z" fill="#2481D3"/>
<path d="M35.5995 72.8237C31.6646 73.1066 25.774 73.6055 24.7192 74.1185C24.7192 74.1185 29.8614 77.9133 35.9259 77.6159L35.6543 73.1498C35.6543 73.1498 35.6467 73.0256 35.5995 72.8237Z" fill="#1364A0"/>
<path d="M27.2097 65.7385L27.7242 69.4472L29.649 70.7663L31.1682 69.5245L30.8589 67.294L27.2097 65.7385Z" fill="#EEB399"/>
<path d="M27.9302 67.5444L30.9693 68.104L31.1342 69.2913C29.4824 69.2997 27.9302 67.5444 27.9302 67.5444Z" fill="#CC957F"/>
<path d="M30.2963 68.7569L31.3551 68.6099C32.7952 68.4102 33.81 67.0685 33.6103 65.6281L33.0882 61.8635C32.8885 60.4235 31.5468 59.4086 30.1064 59.6083L29.0476 59.7554C27.6076 59.9551 26.5927 61.2967 26.7924 62.7368L27.3145 66.5014C27.5146 67.9418 28.8563 68.9567 30.2963 68.7569Z" fill="#EEB399"/>
<path d="M27.7602 62.3893C28.0957 62.5139 28.5028 62.4866 28.7744 62.2543C29.0463 62.0219 29.1237 61.5665 28.8895 61.2957C29.1934 61.4031 29.5242 61.4794 29.8368 61.4006C30.1494 61.3218 30.4319 61.0466 30.4236 60.7245C30.5997 60.8443 30.7841 60.9674 30.9951 60.9961C31.206 61.0248 31.4504 60.9264 31.5165 60.7242C31.7492 60.9032 32.0408 61.0045 32.3342 61.0085C32.5048 61.0106 32.6835 60.9772 32.8157 60.869C32.9435 60.7641 33.0117 60.6022 33.044 60.4399C33.1424 59.9453 32.9224 59.4021 32.5077 59.116C32.4035 59.0437 32.2837 58.986 32.1566 58.9846C32.0299 58.9831 31.8963 59.0499 31.8487 59.1672C31.5866 58.7391 31.1371 58.4138 30.6374 58.3662C30.1378 58.3183 29.6055 58.5808 29.3946 59.0361C29.2932 58.8546 29.0805 58.7558 28.8724 58.7449C28.6647 58.7344 28.4603 58.7994 28.2686 58.8796C28.0148 58.9853 27.7675 59.1225 27.5827 59.3262C27.3982 59.5303 27.2828 59.8095 27.3249 60.0815C27.1168 60.0052 26.891 60.1265 26.716 60.2623C26.4618 60.4598 26.2316 60.7143 26.1583 61.0277C26.0849 61.3411 26.2131 61.7172 26.5083 61.8454C26.2233 62.0451 26.0519 62.3973 26.0708 62.7452C26.0896 63.093 26.2981 63.4245 26.6031 63.5923C26.1924 63.8148 26.0983 64.4564 26.428 64.7876C26.2276 64.8758 26.1347 65.1314 26.192 65.3428C26.2494 65.5541 26.4291 65.7171 26.6317 65.8003C26.8267 65.8805 27.0627 65.8929 27.2403 65.7788C27.4175 65.6652 27.4948 65.4201 27.3881 65.2342C27.4055 65.2647 27.7726 64.8352 27.7911 64.768C27.8448 64.5712 27.8231 64.3054 27.8401 64.0973C27.8877 63.5273 27.8608 62.9518 27.7602 62.3893Z" fill="#171C27"/>
<path d="M26.4142 65.4138C26.4734 65.8401 26.8667 66.1374 27.2929 66.0783C27.7192 66.0191 28.0166 65.6258 27.9574 65.1996C27.8982 64.7733 27.505 64.4759 27.0787 64.5351C26.6524 64.5943 26.3551 64.9875 26.4142 65.4138Z" fill="#EEB399"/>
<path d="M28.3178 65.8283C28.4986 66.053 28.7132 66.2476 28.9278 66.4404C29.1518 66.642 29.3897 66.8497 29.6831 66.9183C30.0944 67.0149 30.5196 66.8155 30.8562 66.5599C31.1928 66.3043 31.4858 65.9866 31.858 65.7858C32.3526 65.5193 32.9495 65.4866 33.4985 65.606C33.6383 65.6365 33.7821 65.6798 33.8845 65.7796C33.9996 65.8922 34.0435 66.057 34.0765 66.2146C34.1764 66.6914 34.2214 67.1794 34.2105 67.6659C34.2033 67.9872 34.1695 68.3177 34.021 68.6027C33.8238 68.981 33.44 69.2385 33.0305 69.3587C32.6209 69.4789 32.1852 69.4752 31.7603 69.4346C30.5966 69.3238 29.4017 68.9019 28.6649 67.9941C28.3799 67.643 28.1751 67.2342 27.987 66.8224C27.7125 66.2211 27.4682 65.606 27.2561 64.9801C27.1672 64.7179 27.0626 64.3726 27.2089 64.1105C27.3665 63.828 27.5967 63.8512 27.6969 64.1388C27.7949 64.4202 27.7732 64.7412 27.8759 65.0305C27.9776 65.3196 28.1265 65.5904 28.3178 65.8283Z" fill="#171C27"/>
<path d="M44.309 66.6851C36.4348 73.9158 27.5945 70.482 27.2005 70.3237C26.0636 69.8603 24.7656 70.3999 24.2961 71.5346C23.8255 72.6722 24.3662 73.9757 25.5041 74.4466C25.7434 74.5454 28.7074 75.7331 32.8681 75.7331C37.006 75.7331 42.3272 74.5577 47.3241 69.9689C46.6734 67.7932 44.309 66.6851 44.309 66.6851Z" fill="#EEB399"/>
<path d="M31.3108 71.0963C28.9325 70.8635 27.341 70.2463 27.1747 70.1795C25.974 69.69 24.6029 70.2601 24.1069 71.4586C23.6098 72.6605 24.181 74.0374 25.3828 74.5344C25.5862 74.6183 27.6544 75.4458 30.7436 75.7664C31.4186 74.1438 31.3591 71.8976 31.3108 71.0963Z" fill="#2481D3"/>
<path d="M31.2212 71.0883C31.2212 71.0883 29.0597 70.9067 27.1755 70.1802" stroke="#1364A0" stroke-width="0.0974223" stroke-miterlimit="10" stroke-linecap="round" stroke-linejoin="round"/>
<path d="M46.0769 65.1188C46.2283 65.0062 46.3917 64.8936 46.5794 64.8733C46.7671 64.853 46.9821 64.9601 47.0159 65.1456C47.0674 65.4307 46.7058 65.6104 46.6034 65.8816C46.5268 66.085 46.6103 66.3177 46.745 66.4884C46.8797 66.6587 47.0609 66.7857 47.2185 66.935C47.9744 67.6525 48.0906 68.9447 47.4748 69.7853C47.3586 69.9436 47.2065 70.0939 47.013 70.1262C46.7682 70.1665 46.5391 70.0101 46.3405 69.8615C45.8075 69.4625 45.269 69.0587 44.8394 68.55C44.4524 68.0918 43.8722 67.273 44.2955 66.716C44.7567 66.1093 45.4694 65.5697 46.0769 65.1188Z" fill="#EEB399"/>
<path d="M103.217 25.6102L100.445 27.4961L104.757 28.6395V32.2843L106.862 29.7175L111.636 30.9314L116.36 20.4763L103.217 25.6102Z" fill="#A7A9AC"/>
<path d="M116.641 18.4568L100.251 25.7743L105.031 27.8109L116.641 18.4568Z" fill="white"/>
<path d="M102.775 33.2782C101.897 34.0617 100.841 34.6456 99.7071 34.9597C98.5082 35.2919 97.1644 35.3108 96.0787 34.7026C94.9934 34.0944 94.2756 32.7491 94.6539 31.564C95.0323 30.3788 96.6854 29.7242 97.6411 30.5204C98.4011 31.1537 98.4345 32.373 97.9559 33.239C97.4777 34.1049 96.6146 34.6841 95.7483 35.1619C93.2705 36.5286 90.4434 37.3478 87.6182 37.1855C85.1353 37.0428 82.6633 36.0947 80.8547 34.4052" stroke="#244E80" stroke-width="0.292232" stroke-linecap="round" stroke-linejoin="round" stroke-dasharray="0.97 0.97"/>
<path d="M80.4901 34.0457C80.3717 33.9219 80.2566 33.7948 80.1455 33.6641" stroke="#244E80" stroke-width="0.292232" stroke-linecap="round" stroke-linejoin="round"/>
<path d="M48.5597 52.9084C48.5597 49.7033 45.9613 47.105 42.7563 47.105C39.5512 47.105 36.9529 49.7033 36.9529 52.9084C36.9529 55.3898 38.5135 57.5016 40.7044 58.3316L39.9426 60.3824L42.9077 58.7041C46.0423 58.6232 48.5597 56.0622 48.5597 52.9084Z" fill="white"/>
<path d="M43.8008 51.3552L40.9414 52.7884L42.636 53.0324L43.2899 54.4183L43.8008 51.3552Z" fill="#244E80"/>
<path d="M45.3341 55.3282H40.1755V50.1697H45.3341V55.3282ZM40.3208 55.183H45.1892V50.3146H40.3208V55.183Z" fill="#244E80"/>
<path d="M45.2613 50.5782C45.4474 50.5782 45.5982 50.4273 45.5982 50.2412C45.5982 50.0552 45.4474 49.9043 45.2613 49.9043C45.0752 49.9043 44.9243 50.0552 44.9243 50.2412C44.9243 50.4273 45.0752 50.5782 45.2613 50.5782Z" fill="#244E80"/>
<path d="M40.2488 50.5782C40.4349 50.5782 40.5858 50.4273 40.5858 50.2412C40.5858 50.0552 40.4349 49.9043 40.2488 49.9043C40.0627 49.9043 39.9119 50.0552 39.9119 50.2412C39.9119 50.4273 40.0627 50.5782 40.2488 50.5782Z" fill="#244E80"/>
<path d="M40.2488 55.5921C40.4349 55.5921 40.5858 55.4413 40.5858 55.2552C40.5858 55.0691 40.4349 54.9182 40.2488 54.9182C40.0627 54.9182 39.9119 55.0691 39.9119 55.2552C39.9119 55.4413 40.0627 55.5921 40.2488 55.5921Z" fill="#244E80"/>
<path d="M45.2613 55.5921C45.4474 55.5921 45.5982 55.4413 45.5982 55.2552C45.5982 55.0691 45.4474 54.9182 45.2613 54.9182C45.0752 54.9182 44.9243 55.0691 44.9243 55.2552C44.9243 55.4413 45.0752 55.5921 45.2613 55.5921Z" fill="#244E80"/>
<path d="M59.2302 123.987C59.2302 123.987 55.5379 124.011 55.6769 120.598C55.6769 120.598 55.5462 117.348 59.4942 117.509C59.4942 117.509 60.1873 122.151 59.2302 123.987Z" fill="#FF5252"/>
<path d="M63.2783 117.663L59.4945 117.509C59.4945 117.509 57.1594 120.645 59.2305 123.987L63.1029 124.145L63.2783 117.663Z" fill="#674A6C"/>
<path d="M115.652 119.795L63.2786 117.662C63.2786 117.662 60.7191 121.023 63.0146 124.14L115.388 126.273L121.709 123.286L115.652 119.795Z" fill="#FBB040"/>
<path d="M62.4627 119.204L116.437 121.402L116.342 123.725L62.064 121.514C62.0233 120.647 62.2179 119.848 62.4627 119.204Z" fill="#EFA33F"/>
<path d="M63.0144 124.142C62.3638 123.258 62.1038 122.355 62.0642 121.514L116.343 123.725C117.607 122.962 119.709 123.218 121.175 123.54L115.388 126.275L63.0144 124.142Z" fill="#DB9037"/>
<path d="M59.9406 117.729C59.9406 117.729 58.051 120.427 59.6297 123.77C59.6297 123.77 58.3564 120.68 59.9406 117.729Z" fill="#36253A"/>
<path d="M60.6869 117.76C60.6869 117.76 58.7973 120.458 60.3761 123.801C60.3761 123.801 59.1023 120.711 60.6869 117.76Z" fill="#36253A"/>
<path d="M61.4301 117.79C61.4301 117.79 59.5405 120.488 61.1192 123.831C61.1192 123.831 59.8455 120.741 61.4301 117.79Z" fill="#36253A"/>
<path d="M62.1761 117.819C62.1761 117.819 60.2866 120.518 61.8653 123.86C61.8653 123.86 60.592 120.771 62.1761 117.819Z" fill="#36253A"/>
<path d="M102.431 122.34L104.236 119.331L78.7785 118.294L78.0007 124.752L100.054 125.65C101.291 123.875 102.431 122.34 102.431 122.34Z" fill="#D1D3D4"/>
<path d="M83.9411 132.38V133.482C83.9411 133.482 79.552 134.336 75.5808 133.482L77.3898 132.38H83.9411Z" fill="#171C27"/>
<path d="M99.4829 114.869L99.6685 125.127L111.798 125.802C111.798 125.802 112.592 129.612 111.798 131.305H99.6685C99.6685 131.305 93.4414 132.42 93.0968 126.444C92.7526 120.467 92.7231 116.495 92.7231 116.495C92.7231 116.495 96.9551 114.358 99.4829 114.869Z" fill="#A05E47"/>
<path d="M99.6663 125.03L99.5512 118.672L92.7769 119.102C92.8186 120.577 92.892 122.617 93.0205 125.062C94.4529 125.356 96.9198 125.644 99.6663 125.03Z" fill="#82493A"/>
<path d="M99.6763 113.36C99.6763 113.36 101.095 117.903 98.4512 118.866C95.8075 119.828 83.3917 118.866 83.3917 118.866L83.9415 132.381C83.9415 132.381 80.4136 133.481 77.3897 132.381L76.9772 116.483C76.9772 116.483 76.0001 111.933 84.8576 112.678L99.6763 113.36Z" fill="#A05E47"/>
<path d="M80.9432 113.139C80.9432 113.139 80.5416 117.628 83.5132 121.888L83.3901 118.865C83.3901 118.865 85.9957 119.066 89.073 119.192C89.0029 118.224 88.906 117.533 88.906 117.533L80.9432 113.139Z" fill="#82493A"/>
<path d="M80.9628 112.679C80.9628 112.679 80.1292 121.476 89.8838 122.48C98.9315 123.411 98.7252 123.953 101.95 123.272C102.37 123.184 102.606 122.733 102.433 122.34C101.727 120.74 100.134 116.85 99.6765 113.36L88.301 112.679C88.301 112.679 84.2067 112.441 80.9628 112.679Z" fill="#0D314C"/>
<path d="M80.8827 87.4304C80.7814 87.291 80.6703 87.1483 80.5123 87.0796C80.3544 87.0106 80.138 87.0451 80.0581 87.1976C79.9354 87.4315 80.2012 87.6871 80.216 87.9507C80.2273 88.1486 80.0908 88.3287 79.927 88.4402C79.7632 88.5516 79.5712 88.6126 79.3929 88.6998C78.5389 89.1177 78.085 90.2106 78.3915 91.1107C78.4492 91.2803 78.5407 91.4528 78.7005 91.5334C78.9023 91.6354 79.1445 91.5617 79.358 91.4866C79.931 91.2847 80.5098 91.0806 81.0228 90.7549C81.4851 90.4615 82.2134 89.9074 81.997 89.3072C81.7614 88.6533 81.2879 87.9888 80.8827 87.4304Z" fill="#A05E47"/>
<path d="M98.3041 109.813C98.339 109.813 98.3735 109.812 98.4083 109.81C100.164 109.724 101.491 109.171 102.354 108.163C103.129 107.258 103.324 106.173 103.249 105.459C103.241 105.384 103.229 105.31 103.214 105.236C102.437 101.636 99.5216 97.0058 99.3974 96.8108C98.778 95.8311 97.4806 95.5389 96.4999 96.1601C95.5202 96.7803 95.2283 98.078 95.8481 99.058C96.5191 100.12 98.2667 103.171 98.949 105.505C98.7889 105.551 98.5456 105.597 98.2039 105.614C97.0453 105.671 96.1517 106.656 96.2079 107.815C96.2628 108.939 97.1912 109.813 98.3041 109.813Z" fill="#E54C64"/>
<path d="M98.205 105.614C97.0464 105.671 96.1528 106.656 96.2091 107.815C96.2639 108.938 97.1923 109.813 98.3052 109.813C98.3401 109.813 98.3746 109.812 98.4094 109.811C99.7406 109.746 100.824 109.41 101.647 108.813C99.7442 105.771 99.27 99.8718 99.27 99.8718L96.8289 100.737C97.5903 102.124 98.5006 103.969 98.9497 105.505C98.79 105.552 98.5467 105.598 98.205 105.614Z" fill="#CC3754"/>
<path d="M85.4685 95.6314L91.7388 95.4397C92.8956 95.3906 93.8673 96.3155 93.9025 97.4752C93.9377 98.6346 93.0263 99.6033 91.867 99.6389L84.3007 99.8702C84.2789 99.8709 84.2579 99.8713 84.2361 99.8713C83.4667 99.8713 82.7565 99.4497 82.3887 98.7693L78.3579 91.3109C79.5612 90.528 82.0535 89.3135 82.0535 89.3135L85.4685 95.6314Z" fill="#E54C64"/>
<path d="M96.6703 91.6968L96.4786 95.3663L94.7078 96.8179L93.1174 95.7312L93.2325 93.5243L96.6703 91.6968Z" fill="#A05E47"/>
<path d="M93.8533 94.9034L92.9074 94.854C91.4543 94.7781 90.3276 93.5276 90.4035 92.0745L90.5927 88.4511C90.6686 86.9984 91.9191 85.8717 93.3722 85.9472L94.3181 85.9966C95.7712 86.0725 96.8979 87.323 96.822 88.7761L96.6328 92.3994C96.5569 93.8522 95.3061 94.9792 93.8533 94.9034Z" fill="#A05E47"/>
<path d="M91.6773 87.6104C91.3313 87.6373 91.2158 88.1565 91.4435 88.4187C91.6712 88.6808 92.0673 88.7164 92.4094 88.6579C92.3128 88.8453 92.2133 89.0599 92.2815 89.2592C92.3498 89.4589 92.6813 89.5424 92.7623 89.3478C92.6973 89.7774 92.6327 90.2073 92.5677 90.6368C92.5375 90.8376 92.5081 91.0497 92.5836 91.2381C92.6592 91.4266 92.8796 91.5732 93.0666 91.4937C93.4907 91.3144 93.0854 90.484 93.4925 90.2683C93.5644 90.2301 93.6486 90.2233 93.7299 90.2287C94.1776 90.2592 94.5531 90.7054 94.5059 91.1521C94.4587 91.5983 93.9986 91.9567 93.5542 91.8931C93.4144 92.0326 93.3959 92.2766 93.5128 92.4356C93.6297 92.5946 93.8679 92.6498 94.0429 92.558C93.9224 92.9047 94.1094 93.3288 94.4467 93.4733C94.784 93.6178 95.2205 93.461 95.3882 93.1349C95.7034 93.5038 96.2208 93.6876 96.6983 93.6004C97.1757 93.5133 97.5947 93.1585 97.7596 92.7025C98.3453 92.786 98.9767 92.6814 99.4429 92.3172C99.9091 91.9534 100.169 91.3038 99.9828 90.7425C100.531 90.5145 100.951 89.9978 101.059 89.4135C101.168 88.8293 100.964 88.1961 100.534 87.7858C101.421 86.6003 101.174 84.7227 100.01 83.8077C99.9349 82.7609 99.3129 81.6861 98.3061 81.3902C97.8743 81.2631 97.3134 81.3437 97.1224 81.7507C96.6413 81.4326 96.0981 81.1571 95.5218 81.1701C94.9456 81.1832 94.3439 81.571 94.2641 82.1421C93.8766 81.8103 93.2808 81.7478 92.8327 81.9918C92.3847 82.2358 92.1142 82.7703 92.1824 83.2757C91.7398 83.1029 91.2006 83.2126 90.8611 83.5448C90.5212 83.877 90.3992 84.4133 90.5619 84.8596C90.5626 84.8617 90.1629 85.6166 90.1614 85.7964C90.1589 86.1351 90.3103 86.4383 90.3876 86.76C90.5158 87.2931 90.9533 88.3918 91.6773 87.6104Z" fill="#171C27"/>
<path d="M96.37 95.1884C96.37 95.1884 99.9317 95.1884 99.6611 99.0194C99.3906 102.85 98.8946 105.128 99.3456 107.613C99.7966 110.098 99.676 113.36 99.676 113.36C99.676 113.36 92.3128 115.771 88.3005 113.131C88.3005 113.131 88.8866 100.676 89.022 98.7606C89.1571 96.8452 90.9577 95.1692 93.8007 95.1884C96.6438 95.2076 96.6438 95.2076 96.6438 95.2076" fill="#E54C64"/>
<path d="M93.5635 113.206C97.1313 113.206 99.6871 111.927 99.7234 111.908C99.7579 111.891 99.7713 111.848 99.7539 111.814C99.7361 111.78 99.6929 111.766 99.6599 111.784C99.6079 111.81 94.4015 114.412 88.4754 112.128C88.4391 112.114 88.3987 112.132 88.3849 112.167C88.3708 112.204 88.3889 112.244 88.4253 112.258C90.2473 112.961 92.0025 113.206 93.5635 113.206Z" fill="#0D314C"/>
<path d="M99.6204 110.104C99.6215 110.104 99.6222 110.104 99.6236 110.104C99.6621 110.103 99.6923 110.07 99.6904 110.031C99.6356 108.793 99.4159 107.613 99.4138 107.601C99.0913 105.825 99.2522 104.19 99.4748 101.928C99.559 101.072 99.6545 100.103 99.7308 99.0248C99.7333 98.9863 99.7042 98.9529 99.6658 98.95C99.6345 98.9486 99.5939 98.9762 99.591 99.015C99.5151 100.091 99.4196 101.059 99.3357 101.914C99.1204 104.102 98.9501 105.83 99.2762 107.626C99.2787 107.638 99.4966 108.809 99.5507 110.037C99.5517 110.075 99.5826 110.104 99.6204 110.104Z" fill="#0D314C"/>
<path d="M99.3401 113.423C99.3786 113.423 99.4102 113.392 99.4102 113.353V112.375C99.4102 112.337 99.379 112.305 99.3401 112.305C99.3016 112.305 99.27 112.336 99.27 112.375V113.353C99.27 113.392 99.3016 113.423 99.3401 113.423Z" fill="#0D314C"/>
<path d="M98.8777 113.369C98.9162 113.369 98.9478 113.337 98.9478 113.299V112.606C98.9478 112.568 98.9165 112.536 98.8777 112.536C98.8392 112.536 98.8076 112.567 98.8076 112.606V113.299C98.8076 113.337 98.8388 113.369 98.8777 113.369Z" fill="#0D314C"/>
<path d="M98.3814 113.617C98.4198 113.617 98.4514 113.586 98.4514 113.547V112.748C98.4514 112.709 98.4202 112.678 98.3814 112.678C98.3429 112.678 98.3113 112.709 98.3113 112.748V113.547C98.3113 113.586 98.3429 113.617 98.3814 113.617Z" fill="#0D314C"/>
<path d="M97.7942 113.723C97.8327 113.723 97.8643 113.692 97.8643 113.653V113.013C97.8643 112.975 97.833 112.943 97.7942 112.943C97.7557 112.943 97.7241 112.975 97.7241 113.013V113.653C97.7241 113.692 97.7557 113.723 97.7942 113.723Z" fill="#0D314C"/>
<path d="M97.2637 113.849C97.3022 113.849 97.3338 113.818 97.3338 113.779V113.067C97.3338 113.029 97.3025 112.997 97.2637 112.997C97.2252 112.997 97.1936 113.028 97.1936 113.067V113.779C97.194 113.818 97.2252 113.849 97.2637 113.849Z" fill="#0D314C"/>
<path d="M96.7476 113.977C96.7861 113.977 96.8176 113.946 96.8176 113.907V113.192C96.8176 113.154 96.7864 113.122 96.7476 113.122C96.7091 113.122 96.6775 113.153 96.6775 113.192V113.907C96.6779 113.946 96.7091 113.977 96.7476 113.977Z" fill="#0D314C"/>
<path d="M96.146 113.973C96.1845 113.973 96.2161 113.942 96.2161 113.903V113.226C96.2161 113.188 96.1849 113.156 96.146 113.156C96.1075 113.156 96.0759 113.187 96.0759 113.226V113.903C96.0759 113.942 96.1075 113.973 96.146 113.973Z" fill="#0D314C"/>
<path d="M95.6299 114.007C95.6684 114.007 95.7 113.976 95.7 113.937V113.351C95.7 113.313 95.6687 113.281 95.6299 113.281C95.5914 113.281 95.5598 113.312 95.5598 113.351V113.937C95.5598 113.976 95.5914 114.007 95.6299 114.007Z" fill="#0D314C"/>
<path d="M95.1702 114.189C95.2087 114.189 95.2402 114.158 95.2402 114.119V113.422C95.2402 113.383 95.209 113.352 95.1702 113.352C95.1317 113.352 95.1001 113.383 95.1001 113.422V114.119C95.1001 114.158 95.1317 114.189 95.1702 114.189Z" fill="#0D314C"/>
<path d="M94.5488 114.061C94.5873 114.061 94.6189 114.03 94.6189 113.991V113.547C94.6189 113.508 94.5877 113.477 94.5488 113.477C94.5104 113.477 94.4788 113.508 94.4788 113.547V113.991C94.4788 114.03 94.5104 114.061 94.5488 114.061Z" fill="#0D314C"/>
<path d="M94.1236 114.203C94.162 114.203 94.1936 114.172 94.1936 114.133V113.582C94.1936 113.544 94.1624 113.512 94.1236 113.512C94.0851 113.512 94.0535 113.543 94.0535 113.582V114.133C94.0535 114.172 94.0847 114.203 94.1236 114.203Z" fill="#0D314C"/>
<path d="M93.7151 114.26C93.7536 114.26 93.7852 114.229 93.7852 114.19V113.494C93.7852 113.456 93.7536 113.424 93.7151 113.424C93.6766 113.424 93.645 113.456 93.645 113.494V114.19C93.6454 114.228 93.6766 114.26 93.7151 114.26Z" fill="#0D314C"/>
<path d="M93.2695 114.281C93.308 114.281 93.3396 114.249 93.3396 114.211V113.493C93.3396 113.454 93.3084 113.423 93.2695 113.423C93.2311 113.423 93.1995 113.454 93.1995 113.493V114.211C93.1995 114.249 93.2307 114.281 93.2695 114.281Z" fill="#0D314C"/>
<path d="M92.7903 114.133C92.8288 114.133 92.8604 114.102 92.8604 114.063V113.493C92.8604 113.454 92.8291 113.423 92.7903 113.423C92.7518 113.423 92.7202 113.454 92.7202 113.493V114.063C92.7206 114.102 92.7518 114.133 92.7903 114.133Z" fill="#0D314C"/>
<path d="M92.3308 114.06C92.3693 114.06 92.4009 114.029 92.4009 113.99V113.493C92.4009 113.454 92.3697 113.423 92.3308 113.423C92.2923 113.423 92.2607 113.454 92.2607 113.493V113.99C92.2611 114.029 92.2923 114.06 92.3308 114.06Z" fill="#0D314C"/>
<path d="M91.7802 114.19C91.819 114.19 91.8502 114.159 91.8502 114.12V113.44C91.8502 113.402 91.819 113.37 91.7802 113.37C91.7417 113.37 91.7104 113.401 91.7104 113.44V114.12C91.7104 114.159 91.7417 114.19 91.7802 114.19Z" fill="#0D314C"/>
<path d="M91.2671 114.07C91.3056 114.07 91.3372 114.039 91.3372 114V113.262C91.3372 113.223 91.3059 113.192 91.2671 113.192C91.2286 113.192 91.197 113.223 91.197 113.262V114C91.197 114.039 91.2282 114.07 91.2671 114.07Z" fill="#0D314C"/>
<path d="M90.8755 113.951C90.914 113.951 90.9456 113.92 90.9456 113.881V113.209C90.9456 113.171 90.9143 113.139 90.8755 113.139C90.837 113.139 90.8054 113.17 90.8054 113.209V113.881C90.8054 113.92 90.8366 113.951 90.8755 113.951Z" fill="#0D314C"/>
<path d="M90.3792 113.885C90.4176 113.885 90.4492 113.854 90.4492 113.815V113.086C90.4492 113.047 90.418 113.016 90.3792 113.016C90.3407 113.016 90.3091 113.047 90.3091 113.086V113.815C90.3094 113.854 90.3407 113.885 90.3792 113.885Z" fill="#0D314C"/>
<path d="M89.9536 113.779C89.9921 113.779 90.0237 113.747 90.0237 113.709V112.997C90.0237 112.958 89.9925 112.927 89.9536 112.927C89.9151 112.927 89.8835 112.958 89.8835 112.997V113.709C89.8839 113.747 89.9151 113.779 89.9536 113.779Z" fill="#0D314C"/>
<path d="M89.457 113.652C89.4955 113.652 89.5271 113.621 89.5271 113.582V112.942C89.5271 112.904 89.4959 112.872 89.457 112.872C89.4185 112.872 89.387 112.904 89.387 112.942V113.582C89.387 113.621 89.4185 113.652 89.457 113.652Z" fill="#0D314C"/>
<path d="M88.9778 113.386C89.0163 113.386 89.0479 113.355 89.0479 113.316V112.659C89.0479 112.62 89.0166 112.589 88.9778 112.589C88.9389 112.589 88.9077 112.62 88.9077 112.659V113.316C88.9077 113.355 88.9389 113.386 88.9778 113.386Z" fill="#0D314C"/>
<path d="M88.6231 113.263C88.6615 113.263 88.6931 113.232 88.6931 113.193V112.5C88.6931 112.462 88.6619 112.43 88.6231 112.43C88.5846 112.43 88.553 112.462 88.553 112.5V113.193C88.5533 113.232 88.5846 113.263 88.6231 113.263Z" fill="#0D314C"/>
<path d="M99.031 117.648C98.4199 118.199 97.6222 118.485 96.8455 118.756C94.8811 119.441 92.8866 120.116 90.8137 120.291" stroke="#074368" stroke-width="0.0974223" stroke-miterlimit="10" stroke-linecap="round" stroke-linejoin="round"/>
</svg>
